<?xml version="1.0" encoding="utf-8"?>
<!-- Generator: Adobe Illustrator 24.2.3, SVG Export Plug-In . SVG Version: 6.00 Build 0)  -->
<svg version="1.1" id="Capa_1" xmlns="http://www.w3.org/2000/svg" xmlns:xlink="http://www.w3.org/1999/xlink" x="0px" y="0px"
	 viewBox="0 0 800 800" style="enable-background:new 0 0 800 800;" xml:space="preserve">
<style type="text/css">
	.st0{fill:#64826E;}
	.st1{fill:#55646E;}
	.st2{fill:#FFE1AF;}
	.st3{fill:#EBD296;}
	.st4{fill:#D7C38C;}
	.st5{fill:#E86464;}
	.st6{fill:#FFEBE1;}
	.st7{fill:#FFE1CD;}
	.st8{fill:#FACD91;}
	.st9{fill:#F0BE7D;}
	.st10{fill:#FFFFFF;}
</style>
<g>
	<path class="st0" d="M625,289.7L625,289.7c0.3,0.9,0.6,1.8,0.9,2.6C625.6,291.4,625.3,290.5,625,289.7z"/>
	<path class="st0" d="M479,289.7c-0.3,0.9-0.6,1.8-0.9,2.6C478.4,291.4,478.7,290.5,479,289.7L479,289.7z"/>
	<path class="st0" d="M678.4,430.1l-46.3-121.5l3.1,8.1l-63.7,63.7c-10.8,10.8-28.2,10.8-39,0l-25-25l0,0l0,0l-12.9,74.7
		c-6.7,39-10.6,80-11.3,121.6h0.2h165.2c15.2,0,27.6,12.3,27.6,27.6v137.9c0,15.2-12.3,27.6-27.6,27.6H483
		c0,30.5,11.2,55.2,25.1,55.2h140.4c30.5,0,55.2-24.7,55.2-55.2V567.6C703.7,520.6,695.1,474,678.4,430.1z"/>
	<path class="st1" d="M481.6,282.8c0.6-1.8,1.2-3.5,1.8-5.3c0.4-1.2,0.8-2.4,1.2-3.6c0.9-2.6,1.7-5.2,2.6-7.8c0,0,0,0,0,0
		c3.7-11.8,7-23.8,9.9-35.9c-2,8.5-4.3,17-6.8,25.4c-1.8,6.1-3.7,12.2-5.7,18.2c-1.8,5.3-3.6,10.6-5.6,15.9c-0.3,0.9-0.6,1.8-1,2.6
		C479.3,289.1,480.4,286,481.6,282.8z"/>
	<path class="st1" d="M483,744.8h-27.6c-1.9,0-3.8-0.2-5.6-0.6c-10.8-2.2-19.3-10.7-21.5-21.5c-0.4-1.8-0.6-3.7-0.6-5.6V579.3
		c0-2.4,0.3-4.7,0.9-6.9c0.2-0.6,0.3-1.2,0.5-1.8c2.7-8.1,9-14.5,17-17.3c1.2-0.4,2.3-0.8,3.6-1c1.8-0.4,3.7-0.6,5.6-0.6h27.8
		c0.8-41.6,4.6-82.6,11.3-121.6l12.9-74.7l-38.7-38.7l5.1-13.3l4.3-11.2l-16.9,44.5l-35.6,93.4c-16.7,43.9-25.3,90.5-25.3,137.5
		v177.2c0,30.5,24.7,55.2,55.2,55.2h52.7C494.3,800,483,775.3,483,744.8z"/>
	<path class="st2" d="M538.2,69h-5v46.6c0,60.4-5,120.3-14.8,176.8l-1.9,11.2l-9,52l25,25c10.8,10.8,28.2,10.8,39,0l63.7-63.7
		l-3.1-8.1l-2-5.2l-4.3-11.2c-0.3-0.9-0.6-1.8-1-2.6C604.1,234,593.4,175,593.4,115.5V65.2c-4.1,2.4-8.8,3.7-13.8,3.7H538.2z"/>
	<path class="st2" d="M510.5,123.9c0.1-2.8,0.1-5.6,0.1-8.4C510.6,118.3,510.6,121.1,510.5,123.9z"/>
	<path class="st2" d="M481.6,282.8c-1.1,3.2-2.3,6.3-3.5,9.5C479.3,289.1,480.4,286,481.6,282.8z"/>
	<path class="st2" d="M487.2,266.1C487.2,266.1,487.2,266.1,487.2,266.1C487.2,266.1,487.2,266.1,487.2,266.1z"/>
	<path class="st2" d="M484.6,273.9c-0.4,1.2-0.8,2.4-1.2,3.6C483.8,276.3,484.2,275.1,484.6,273.9z"/>
	<path class="st3" d="M468.8,316.8l38.7,38.7l0,0l0,0l9-52l1.9-11.2c9.8-56.5,14.8-116.4,14.8-176.8V69h-8.8c-5,0-9.7-1.4-13.8-3.7
		V69v46.6c0,0,0,0,0,0c0,2.8,0,5.6-0.1,8.4c-0.2,7.9-0.6,15.8-1.1,23.7c-0.1,2.1-0.3,4.1-0.4,6.2c-0.8,10.8-2,21.6-3.5,32.4
		c0,0.2-0.1,0.4-0.1,0.7c-1.6,11.4-3.7,22.6-6.2,33.8c-0.1,0.3-0.1,0.6-0.2,0.9c-0.6,2.9-1.3,5.8-2,8.7c-2.9,12.1-6.1,24.1-9.9,35.9
		c0,0,0,0,0,0c-0.8,2.6-1.7,5.2-2.6,7.8c-0.4,1.2-0.8,2.4-1.2,3.6c-0.6,1.8-1.2,3.5-1.8,5.3c-1.1,3.2-2.3,6.3-3.5,9.5l-4.2,11.2
		L468.8,316.8z"/>
	<path class="st2" d="M483,744.8h165.5c15.2,0,27.6-12.3,27.6-27.6V579.3c0-15.2-12.3-27.6-27.6-27.6H483.4
		c-0.1,5.3-0.3,10.6-0.3,15.9L483,744.8L483,744.8z M529.3,606.9c8.9,0,16.9,3.6,22.7,9.4c5.8-5.8,13.9-9.4,22.7-9.4
		c17.8,0,32.2,14.4,32.2,32.2c0,24.6-28.9,54.2-54.9,66.3c-26-12.1-54.9-41.7-54.9-66.3C497.1,621.3,511.5,606.9,529.3,606.9z"/>
	<path class="st2" d="M455.4,744.8c-1.9,0-3.8-0.2-5.6-0.6C451.7,744.6,453.5,744.8,455.4,744.8z"/>
	<path class="st2" d="M428.4,722.8c-0.4-1.8-0.6-3.7-0.6-5.6C427.9,719.1,428,721,428.4,722.8z"/>
	<path class="st2" d="M428.8,572.4c0.2-0.6,0.3-1.2,0.5-1.8C429.1,571.2,428.9,571.8,428.8,572.4z"/>
	<path class="st2" d="M449.9,552.3c1.8-0.4,3.7-0.6,5.6-0.6C453.5,551.7,451.7,551.9,449.9,552.3z"/>
	<path class="st2" d="M446.3,553.3c1.2-0.4,2.3-0.8,3.6-1C448.7,552.5,447.5,552.9,446.3,553.3z"/>
	<path class="st2" d="M428.4,722.8c2.2,10.8,10.7,19.3,21.5,21.5C439.1,742.1,430.6,733.6,428.4,722.8z"/>
	<path class="st3" d="M449.9,552.3c-1.2,0.3-2.4,0.6-3.6,1c-8,2.8-14.3,9.2-17,17.3c-0.2,0.6-0.4,1.2-0.5,1.8
		c-0.6,2.2-0.9,4.5-0.9,6.9v137.9c0,1.9,0.2,3.8,0.6,5.6c2.2,10.8,10.7,19.3,21.5,21.5c1.8,0.4,3.7,0.6,5.6,0.6H483V567.6
		c0-5.3,0.2-10.6,0.3-15.9h-0.2h-27.8C453.5,551.7,451.7,551.9,449.9,552.3z"/>
	<path class="st3" d="M552,13.8v41.4c0,7.6-6.2,13.8-13.8,13.8h41.4c5,0,9.7-1.4,13.8-3.7c8.2-4.8,13.8-13.7,13.8-23.9V27.6
		c0-15.2-12.3-27.6-27.6-27.6h-41.4C545.8,0,552,6.2,552,13.8z"/>
	<path class="st4" d="M533.2,69h5c7.6,0,13.8-6.2,13.8-13.8V13.8C552,6.2,545.8,0,538.2,0h-13.8c-15.2,0-27.6,12.4-27.6,27.6v13.8
		c0,10.2,5.6,19.1,13.8,23.9c4.1,2.4,8.8,3.7,13.8,3.7H533.2z"/>
	<path class="st5" d="M552,705.4c26-12.1,54.9-41.7,54.9-66.3c0-17.8-14.4-32.2-32.2-32.2c-8.9,0-16.9,3.6-22.7,9.4
		c-5.8-5.8-13.9-9.4-22.7-9.4c-17.8,0-32.2,14.4-32.2,32.2C497.1,663.7,526,693.3,552,705.4z"/>
</g>
<g>
	<path class="st6" d="M400,324.6V139c0-6.4-5.2-11.6-11.6-11.6H202.9c0,0,0,126.1,0,197.1c0,1,0,2,0,2.9c1.2,0.6,2.3,1.1,3.7,1.6
		c0.9,0.3,1.9,0.6,3,0.8c0.2,0,0.3,0.1,0.5,0.1c1.3,0.2,2.7,0.3,4.3,0.3c11.5,0,11.6-5.8,23.1-5.8c0,0,0,0,0,0c0,0,0,0,0,0
		c11.6,0,11.6,5.8,23.1,5.8c10.9,0,11.7-5.1,21.4-5.7c0.6,0,1.1-0.1,1.8-0.1h0h0c11.6,0,11.6,5.8,23.2,5.8c0.2,0,0.3,0,0.4,0
		c1.4,0,2.6-0.1,3.7-0.3c0.6-0.1,1.2-0.2,1.7-0.4c0.5-0.1,1-0.2,1.4-0.4c5.1-1.7,7.4-4.7,15.9-4.7c11.6,0,11.6,5.8,23.2,5.8
		c11.6,0,11.6-5.8,23.2-5.8c0,0,0.1,0,0.1,0c0,22.8-3.9,45.2-10.3,67.3c0,0,0,0-0.1,0c-14.1,48.4-40.2,94.6-64.2,136.9
		c-11.4,20.1-22.2,39.1-31,57.2c-4.2,8.6-16.5,8.6-20.7,0c-0.6-1.1-1.1-2.3-1.7-3.4c7.1,29.5,12,55.9,12,78.4v75.9
		c0,16.6-9.7,30.9-16.5,34.1l-8.2,4c-2.5,1.2-4.3,6.4-4.3,12.5c0,7,2.4,12.7,5.3,12.7h80.5c7,0,12.7-5.7,12.7-12.7
		c0-6.1-4.3-11.3-10.2-12.5l-19.8-4c-16.3-3.3-28-17.5-28-34.1v-75.8C272.4,584.3,400,462.3,400,324.6z M249.2,289.8
		c-6.4,0-11.6-5.2-11.6-11.6c0-6.4,5.2-11.6,11.6-11.6s11.6,5.2,11.6,11.6C260.8,284.6,255.6,289.8,249.2,289.8z M272.4,208.6
		c-6.4,0-11.6-5.2-11.6-11.6s5.2-11.6,11.6-11.6S284,190.6,284,197S278.8,208.6,272.4,208.6z M330.4,266.6
		c-6.4,0-11.6-5.2-11.6-11.6s5.2-11.6,11.6-11.6S342,248.6,342,255S336.8,266.6,330.4,266.6z"/>
	<path class="st7" d="M231.8,787.3c0-6.1,1.8-11.3,4.3-12.5l8.2-4c6.8-3.3,16.5-17.5,16.5-34.1v-75.9c0-22.5-5-48.8-12-78.4
		c0-0.1-0.1-0.1-0.1-0.2c0,0.1,0.1,0.3,0.1,0.4c-8.5-17.1-18.6-35-29.3-54c-24-42.3-50.2-88.5-64.2-136.9c0,0,0,0-0.1,0
		c-6.4-22.1-10.3-44.6-10.3-67.3c11.5,0,11.6,5.8,23.1,5.8c11.6,0,11.6-5.8,23.1-5.8c0.7,0,1.3,0,1.9,0.1c0.2,0,0.3,0,0.4,0
		c0.5,0,1,0.1,1.5,0.2c0.1,0,0.1,0,0.2,0c0.5,0.1,1,0.2,1.5,0.3c0.1,0,0.2,0,0.2,0.1c0.4,0.1,0.9,0.2,1.3,0.3c0,0,0,0,0.1,0
		c1.8,0.5,3.3,1.3,4.7,2c0-1,0-1.9,0-2.9c0-71,0-197.1,0-197.1h-69.6c-6.4,0-11.6,5.2-11.6,11.6v185.5
		c0,137.7,127.6,259.7,127.6,336.3v75.9c0,16.6-11.7,30.9-28,34.1l-19.8,4c-6,1.2-10.2,6.4-10.2,12.5c0,7,5.7,12.7,12.7,12.7h33.2
		C234.2,800,231.8,794.3,231.8,787.3z M179.7,220.2c6.4,0,11.6,5.2,11.6,11.6c0,6.4-5.2,11.6-11.6,11.6c-6.4,0-11.6-5.2-11.6-11.6
		C168.1,225.4,173.3,220.2,179.7,220.2z"/>
	<path class="st8" d="M330.5,394.1c-8.2,0-10.6-2.9-15.4-4.6c-0.9-0.3-1.9-0.6-3-0.8c-0.2,0-0.3-0.1-0.5-0.1
		c-1.3-0.2-2.7-0.3-4.3-0.3c-11.5,0-11.6,5.8-23.1,5.8c0,0,0,0,0,0s0,0,0,0c-11.6,0-11.6-5.8-23.1-5.8c-10.9,0-11.7,5.1-21.4,5.7
		c-0.6,0-1.1,0.1-1.8,0.1h0h0c-11.6,0-11.6-5.8-23.2-5.8c-0.2,0-0.3,0-0.4,0c-1.4,0-2.6,0.1-3.7,0.3c-0.6,0.1-1.2,0.2-1.7,0.4
		c-0.5,0.1-1,0.2-1.4,0.4c-0.1,0-0.2,0.1-0.3,0.1c8.5,72,28.6,137.9,41.7,192.8c0,0.1,0.1,0.1,0.1,0.2c0.6,1.1,1.2,2.3,1.7,3.4
		c4.2,8.6,16.5,8.6,20.7,0c8.8-18.1,19.6-37.1,31-57.2c24-42.3,50.2-88.5,64.2-136.9c-3.3-1.6-6.2-3.5-12.8-3.5
		C342.1,388.3,342.1,394.1,330.5,394.1z M260.8,452.1c-6.4,0-11.6-5.2-11.6-11.6s5.2-11.6,11.6-11.6s11.6,5.2,11.6,11.6
		S267.2,452.1,260.8,452.1z M284,498.5c-6.4,0-11.6-5.2-11.6-11.6c0-6.4,5.2-11.6,11.6-11.6s11.6,5.2,11.6,11.6
		C295.6,493.3,290.4,498.5,284,498.5z"/>
	<path class="st9" d="M207,389.5C207,389.5,207,389.5,207,389.5C207,389.5,207,389.5,207,389.5c-4,1.4-6.3,3.6-11.4,4.3c0,0,0,0,0,0
		c-0.3,0.1-0.7,0.1-1.1,0.1c-0.1,0-0.1,0-0.2,0c-0.4,0-0.7,0.1-1.1,0.1c-0.1,0-0.2,0-0.2,0c-0.5,0-1,0-1.5,0
		c-11.6,0-11.6-5.8-23.2-5.8c-6.7,0-9.5,1.9-12.9,3.5c14.1,48.4,40.2,94.6,64.2,136.9c10.8,19,20.8,36.9,29.3,54
		c0-0.1-0.1-0.3-0.1-0.4C235.6,527.4,215.5,461.5,207,389.5z"/>
	<circle class="st9" cx="284" cy="486.9" r="11.6"/>
	<circle class="st10" cx="330.4" cy="255" r="11.6"/>
	<circle class="st6" cx="179.7" cy="231.8" r="11.6"/>
	<circle class="st10" cx="272.4" cy="197" r="11.6"/>
	<circle class="st10" cx="249.2" cy="278.2" r="11.6"/>
	<circle class="st9" cx="260.8" cy="440.5" r="11.6"/>
	<path class="st10" d="M191.1,324.6c0.7,0,1.3,0,1.9,0.1C192.4,324.6,191.8,324.6,191.1,324.6z"/>
	<path class="st10" d="M193.5,324.7c0.5,0,1,0.1,1.5,0.2C194.5,324.7,194,324.7,193.5,324.7z"/>
	<path class="st10" d="M196.8,325.2c0.4,0.1,0.9,0.2,1.3,0.3C197.7,325.4,197.3,325.3,196.8,325.2z"/>
	<path class="st10" d="M202.9,327.5c0.1,21.1,1.6,41.8,4,62c0,0,0,0,0,0c0.1,0,0.2-0.1,0.3-0.1c0.4-0.1,0.9-0.3,1.4-0.4
		c0.5-0.1,1.1-0.3,1.7-0.4c1.1-0.2,2.3-0.3,3.7-0.3c0.2,0,0.3,0,0.4,0c11.6,0,11.6,5.8,23.2,5.8h0h0c0.7,0,1.2-0.1,1.8-0.1
		c9.7-0.6,10.5-5.7,21.4-5.7c11.6,0,11.6,5.8,23.1,5.8c0,0,0,0,0,0c0,0,0,0,0,0c11.6,0,11.6-5.8,23.1-5.8c1.7,0,3.1,0.1,4.3,0.3
		c0.2,0,0.3,0.1,0.5,0.1c1.1,0.2,2.1,0.5,3,0.8c4.8,1.7,7.2,4.6,15.4,4.6c11.6,0,11.6-5.8,23.1-5.8c6.6,0,9.4,1.9,12.8,3.5
		c0,0,0,0,0.1,0c6.4-22,10.3-44.5,10.3-67.3c0,0-0.1,0-0.1,0c-11.6,0-11.6,5.8-23.2,5.8c-11.6,0-11.6-5.8-23.2-5.8
		c-8.4,0-10.8,3.1-15.9,4.7c-0.4,0.1-0.9,0.3-1.4,0.4c-0.5,0.1-1.1,0.3-1.7,0.4c-1.1,0.2-2.3,0.3-3.7,0.3c-0.2,0-0.3,0-0.4,0
		c-11.6,0-11.6-5.8-23.2-5.8h0h0c-0.7,0-1.2,0.1-1.8,0.1c-9.7,0.6-10.5,5.7-21.4,5.7c-11.6,0-11.6-5.8-23.1-5.8c0,0,0,0,0,0
		c0,0,0,0,0,0c-11.6,0-11.6,5.8-23.1,5.8c-1.7,0-3.1-0.1-4.3-0.3c-0.2,0-0.3-0.1-0.5-0.1c-1.1-0.2-2.1-0.5-3-0.8
		C205.2,328.6,204,328.1,202.9,327.5c-1.5-0.8-3-1.5-4.8-2C200,326.1,201.5,326.8,202.9,327.5z"/>
	<path class="st10" d="M195.1,324.8c0.5,0.1,1,0.2,1.5,0.3C196.1,325,195.6,324.9,195.1,324.8z"/>
	<path class="st10" d="M194.5,394c-0.1,0-0.1,0-0.2,0C194.3,394,194.4,394,194.5,394z"/>
	<path class="st10" d="M193.1,394.1c-0.1,0-0.2,0-0.2,0C193,394.1,193,394.1,193.1,394.1z"/>
	<path class="st10" d="M195.6,393.8C195.6,393.8,195.6,393.8,195.6,393.8C195.6,393.8,195.6,393.8,195.6,393.8z"/>
	<path class="st6" d="M191.4,394.1c0.5,0,1,0,1.5,0c0.1,0,0.2,0,0.2,0c0.4,0,0.8,0,1.1-0.1c0.1,0,0.1,0,0.2,0c0.4,0,0.7-0.1,1.1-0.1
		c0,0,0,0,0,0c5.1-0.8,7.4-2.9,11.4-4.3c0,0,0,0,0,0c-2.4-20.2-3.9-40.9-4-62c-1.5-0.7-2.9-1.5-4.8-2c0,0,0,0-0.1,0
		c-0.4-0.1-0.8-0.2-1.3-0.3c-0.1,0-0.2,0-0.2-0.1c-0.5-0.1-1-0.2-1.5-0.3c-0.1,0-0.1,0-0.2,0c-0.5-0.1-1-0.1-1.5-0.2
		c-0.1,0-0.3,0-0.4,0c-0.6,0-1.2-0.1-1.9-0.1c-11.6,0-11.6,5.8-23.1,5.8c-11.6,0-11.6-5.8-23.1-5.8c0,22.8,3.9,45.3,10.3,67.3
		c0,0,0,0,0.1,0c3.4-1.6,6.3-3.5,12.9-3.5C179.8,388.3,179.8,394.1,191.4,394.1z"/>
</g>
</svg>
