<?xml version="1.0" encoding="utf-8"?>
<!-- Generator: Adobe Illustrator 24.2.3, SVG Export Plug-In . SVG Version: 6.00 Build 0)  -->
<svg version="1.1" id="Слой_1" xmlns="http://www.w3.org/2000/svg" xmlns:xlink="http://www.w3.org/1999/xlink" x="0px" y="0px"
	 viewBox="0 0 1200 1200" style="enable-background:new 0 0 1200 1200;" xml:space="preserve">
<style type="text/css">
	.st0{opacity:0.33;}
	.st1{fill:#EE9480;}
	.st2{fill:none;}
	.st3{font-family:'Vivaldiscript';}
	.st4{font-size:250px;}
</style>
<g class="st0">
	<path class="st1" d="M858.3,522.9c0,2.6-1.8,4.8-5.4,6.6c-6.4,3.2-12.7,6.3-18.9,9.3c-22.7,12.4-44.7,18.6-65.9,18.6
		c-31.1,0-52.8-16.8-65-50.3c-30.3,33.5-59.1,50.3-86.2,50.3c-14.6,0-26.5-4.3-35.8-13s-13.9-19.3-13.9-31.9
		c0-20,9.2-39.9,27.5-59.9c18-19.2,49-42.9,93.1-71.2c2-29.3,10.6-55.5,25.7-78.4c15.8-23.7,33.5-35.6,53.3-35.6
		c15.2,0,22.7,6.6,22.7,19.8c0,11.8-6.3,24.7-18.9,38.9c-10.4,11.6-28.6,27.6-54.8,48.2c-1.2,19.6-1.8,27.2-1.8,23
		c0,22,2.7,44.9,8.1,68.8c26.1-30.1,46-50.7,59.6-61.7c13-10.4,24.5-15.6,34.7-15.6c12,0,18,5.3,18,15.9c0,12.6-6,18.9-18,18.9
		c-8.2,0-12.3-3.6-12.3-10.8c0-2.6,1.3-5.7,3.9-9.3c-12.8,0-40,25.9-81.7,77.8c13,40.9,32.6,61.4,59,61.4c13,0,31.7-6.4,56.3-19.2
		c6.4-3.2,10.3-4.8,11.7-4.8C856.7,518.7,858.3,520.1,858.3,522.9z M697.9,492.4c-6.6-28.1-9.9-56.8-9.9-85.9V396
		c-33.3,24.1-56.9,44.3-70.6,60.5c-13.8,16.2-20.7,32-20.7,47.6c0,18.4,10.4,27.5,31.1,27.5C652.6,531.6,675.9,518.5,697.9,492.4z
		 M774.5,289.4c0-7.8-3.5-11.7-10.5-11.7c-9.4,0-19.1,7.7-29,23c-11,16.8-17.3,36-18.9,57.8c17.4-11.6,31.7-24.3,43.1-38.3
		C769.4,307.3,774.5,297,774.5,289.4z"/>
</g>
<rect x="90.9" y="203.3" class="st2" width="876.1" height="197.7"/>
<text transform="matrix(1 0 0 1 90.8955 370.5459)" class="st1 st3 st4">Марина</text>
<rect x="294.4" y="409.1" class="st2" width="876.1" height="197.7"/>
<text transform="matrix(1 0 0 1 294.4276 576.3164)" class="st1 st3 st4">Андрей</text>
</svg>
