<?xml version="1.0" encoding="utf-8"?>
<!-- Generator: Adobe Illustrator 24.2.3, SVG Export Plug-In . SVG Version: 6.00 Build 0)  -->
<svg version="1.1" id="Слой_1" xmlns="http://www.w3.org/2000/svg" xmlns:xlink="http://www.w3.org/1999/xlink" x="0px" y="0px"
	 viewBox="0 0 1184 591" style="enable-background:new 0 0 1184 591;" xml:space="preserve">
<style type="text/css">
	.st0{opacity:0.33;}
	.st1{fill:#EE9480;}
</style>
<g class="st0">
	<path class="st1" d="M909.5,420.7c0,3.1-2.2,5.8-6.5,8c-7.7,3.9-15.4,7.6-22.8,11.2c-27.6,15-54.1,22.5-79.8,22.5
		c-37.7,0-63.9-20.3-78.7-60.9c-36.7,40.6-71.6,60.9-104.4,60.9c-17.6,0-32.1-5.3-43.3-15.8s-16.9-23.4-16.9-38.6
		c0-24.2,11.1-48.3,33.4-72.5c21.8-23.2,59.3-52,112.8-86.3c2.4-35.5,12.8-67.2,31.2-95c19.1-28.8,40.6-43.1,64.5-43.1
		c18.4,0,27.6,8,27.6,23.9c0,14.3-7.6,30-22.8,47.1c-12.6,14-34.7,33.5-66.4,58.4c-1.5,23.7-2.2,33-2.2,27.9
		c0,26.6,3.3,54.4,9.8,83.4c31.7-36.5,55.7-61.4,72.2-74.7c15.7-12.6,29.7-18.9,42.1-18.9c14.5,0,21.8,6.4,21.8,19.2
		c0,15.2-7.3,22.8-21.8,22.8c-9.9,0-14.9-4.4-14.9-13.1c0-3.1,1.6-6.9,4.7-11.2c-15.5,0-48.5,31.4-99,94.3
		c15.7,49.6,39.5,74.3,71.4,74.3c15.7,0,38.4-7.7,68.2-23.2c7.7-3.9,12.4-5.8,14.1-5.8C907.6,415.6,909.5,417.3,909.5,420.7z
		 M715.2,383.7c-8-34.1-12-68.8-12-104.1V267c-40.4,29.2-68.9,53.7-85.6,73.2c-16.7,19.6-25,38.8-25,57.6
		c0,22.2,12.6,33.4,37.7,33.4C660.3,431.2,688.6,415.4,715.2,383.7z M808,137.9c0-9.4-4.2-14.1-12.7-14.1
		c-11.4,0-23.1,9.3-35.2,27.9c-13.3,20.3-20.9,43.6-22.8,70c21-14,38.4-29.5,52.2-46.4C801.8,159.5,808,147.1,808,137.9z"/>
</g>
<g>
	<path class="st1" d="M472.7,29.9l-12.4,40.9l-5.8-0.9c1.2-4.4,1.8-7.7,1.8-9.7c0-5.2-4.2-7.9-12.7-7.9c-13.7,0-26.8,8.6-39.1,25.7
		c-10.9,15.1-20.5,45.8-28.8,92.1c-4.8,27.1-7.3,43.6-7.3,49.7c0,5.3,2.3,7.9,7,7.9c3.4,0,8.3-1.5,14.5-4.5l3,4.8
		c-10.7,4-26.3,10.3-46.9,18.8c1-27.7,8.3-69.4,21.8-125.4c-12.3,15.5-32.5,40.7-60.6,75.4c-7.1,8.7-19.7,24.3-37.9,46.9l-3.9-2.7
		c3.6-7.1,5.5-14,5.5-20.9c0-11.7-1.6-24.7-4.8-39.1c-2-8.5-4.9-21.3-8.8-38.5c-21.2,28.5-43.4,51.4-66.6,68.7
		c-29.7,22.4-58.7,33.6-87.2,33.6c-26.4,0-48.8-8-66.9-23.9c-19-16.8-28.5-38.2-28.5-64.2c0-25.6,8.8-45.9,26.3-60.9
		c16.8-14.1,38.2-21.2,64.2-21.2c15.3,0,29.4,2.9,42.1,8.8c11.7,5.3,28.1,16.5,49.1,33.6c7.9,6.3,13.7,9.4,17.6,9.4
		c4,0,11.1-2.7,21.2-8.2l3,4.5l-39.1,21.5c-42-39-78.6-58.4-109.9-58.4c-19.2,0-34.7,5.6-46.6,16.7c-11.9,11.1-17.9,26.2-17.9,45.4
		c0,18.4,5.6,34.5,16.7,48.5c17.6,21.8,43.7,32.7,78.4,32.7c50.7,0,98.2-31.5,142.6-94.5c-1.8-11.1-2.7-20.5-2.7-28.2
		c0-23.2,5.5-44.4,16.4-63.6c7.3-12.5,14.2-18.8,20.9-18.8c8.3,0,12.4,7.2,12.4,21.5c0,17.2-10.7,42.9-32.1,77.2
		c0.8,4,3.1,13.4,7,28.2c5.9,23.8,9.6,43.6,11.2,59.4c10.9-13.3,40.2-49.6,87.8-108.7c19.8-24.4,33.4-40.1,40.9-46.9
		C435.5,38.6,453.9,30.3,472.7,29.9z M290.4,52c0-7.9-2.7-11.8-8.2-11.8s-9.6,6.2-12.4,18.5c-1.8,8.3-2.7,17-2.7,26
		c0,7.5,0.8,17,2.4,28.5C283.4,89.2,290.4,68.8,290.4,52z"/>
	<path class="st1" d="M559.3,113.8c0,2.2-1.5,6.2-4.5,11.8c-7.1-1.2-14.3-1.8-21.8-1.8c-34.1,0-63,14.6-86.6,43.9
		c-12.5,15.5-18.8,30.8-18.8,45.7c0,8.7,3.1,13,9.4,13c4,0,9.9-3.1,17.6-9.4c12.7-10.3,23.8-23.2,33.2-38.8
		c9.4-15.5,15.8-31.3,19.2-47.2c4.4,2.6,6.7,7.5,6.7,14.5c0,10.3-5,21.9-15.1,34.8c4.6-0.4,10.7-1.8,18.2-4.2
		c-10.7,23.8-16,37.5-16,41.2c0,2.8,1.4,4.2,4.2,4.2c2.2,0,6.9-2,13.9-6.1l3,3.9c-10.9,8.3-25.8,14.7-44.8,19.4v-0.9
		c0-8.5,6.2-26.2,18.5-53.3c-10.1,12.1-21.5,23.4-34.2,33.9c-17,13.9-30.5,20.9-40.6,20.9c-7.3,0-10.9-4.6-10.9-13.9
		c0-21.2,11.3-42.9,33.9-65.1c25.4-25.2,54.5-41.2,87.2-47.8c8.9-1.6,16.7-2.4,23.3-2.4C557.5,110.2,559.3,111.4,559.3,113.8z"/>
	<path class="st1" d="M640.4,142c0,24-9.5,46.5-28.5,67.5c-15.1,16.6-28.6,24.8-40.3,24.8c-6.3,0-9.4-2.7-9.4-8.2
		c0-2,0.7-4.2,2.1-6.7c5.2,3.4,9.7,5.1,13.3,5.1c12.7,0,24.2-9.1,34.5-27.3c9.1-15.9,13.6-30.7,13.6-44.2
		c0-16.8-10.4-25.6-31.2-26.6c-16.8,42.6-41.5,106.4-74.2,191.4c-5,2.2-11.1,4.1-18.2,5.8c9.3-20.4,19.5-45.8,30.6-76.3
		c9.1-25.8,18.3-51.7,27.6-77.5c3.8-1,6.7-2,8.5-3c4-2.2,10.8-15.6,20.3-40.3c-1.8,0-3.1,0-3.9,0c-7.9,0-15.4,0.5-22.7,1.5
		l-8.5,21.5h-4.5l13.6-37.2c0.6,0,11.3-0.6,32.1-1.8l9.7-27.3h5.1l-9.4,27.6C627.2,110.8,640.4,121.2,640.4,142z"/>
	<path class="st1" d="M767.9,111.1c-5.9,11.3-13.9,29-24.2,53c-12.1,28.1-18.2,44.6-18.2,49.7c0,3.2,1.7,4.8,5.1,4.8
		c3,0,7.2-1.1,12.4-3.3l2.1,4.2c-6.1,3.4-20,9.3-41.8,17.6c2.4-16.4,7.7-34.4,15.7-54.2c-28.5,36.1-51,54.2-67.5,54.2
		c-6.9,0-10.3-3.7-10.3-11.2c0-5.6,1.6-12.5,4.8-20.6c2-5.2,10.9-24.6,26.6-58.1c4-8.5,6.1-14.2,6.1-17.3c0-3.4-1.7-5.1-5.1-5.1
		c-1.8,0-4.7,0.6-8.8,1.8l-1.2-4.5c16.6-5,29.4-9.6,38.5-13.6c-0.2,6.5-1.5,13-3.9,19.7c-2,4.8-9.8,21.2-23.3,49.1
		c-10.3,21.2-15.4,34.2-15.4,39.1c0,4.2,1.9,6.4,5.8,6.4c8.7,0,20.6-8.9,35.7-26.6c11.5-13.5,20.9-26.7,28.2-39.7
		c5.5-9.9,11.4-23,17.9-39.4C752.9,116.2,759.8,114.3,767.9,111.1z"/>
	<path class="st1" d="M885.4,111.1c-5.5,10.3-13.5,28.1-24.2,53.3C849,192.4,843,208.9,843,213.7c0,3.2,1.7,4.8,5.1,4.8
		c3,0,7.2-1.1,12.4-3.3l2.1,4.2c-6.3,3.4-20.1,9.3-41.5,17.6c2.6-19.2,10.7-44.2,24.2-75.1c-19.8,1.2-35.6,8.8-47.5,22.7
		c-7.3,8.5-15.9,24.4-26,47.8c-4.6,1-11.5,3.4-20.6,7.3c4-8.1,12.3-27,24.8-56.9c13.5-32.7,20.3-50.4,20.3-53c0-3.4-1.7-5.1-5.1-5.1
		c-1.8,0-4.7,0.6-8.8,1.8l-1.2-4.5c16.6-5,29.4-9.6,38.5-13.6c-0.2,6.1-1.5,12.6-3.9,19.7c-2.2,5.5-10,21.8-23.3,49.1
		c11.7-11.7,29.8-18.7,54.2-20.9c5.5-9.9,11.4-23,17.9-39.4C870.3,116.2,877.3,114.3,885.4,111.1z"/>
	<path class="st1" d="M1020.1,113.8c0,2.2-1.5,6.2-4.5,11.8c-7.1-1.2-14.3-1.8-21.8-1.8c-34.1,0-63,14.6-86.6,43.9
		c-12.5,15.5-18.8,30.8-18.8,45.7c0,8.7,3.1,13,9.4,13c4,0,9.9-3.1,17.6-9.4c12.7-10.3,23.8-23.2,33.2-38.8
		c9.4-15.5,15.8-31.3,19.2-47.2c4.4,2.6,6.7,7.5,6.7,14.5c0,10.3-5,21.9-15.1,34.8c4.6-0.4,10.7-1.8,18.2-4.2
		c-10.7,23.8-16,37.5-16,41.2c0,2.8,1.4,4.2,4.2,4.2c2.2,0,6.9-2,13.9-6.1l3,3.9c-10.9,8.3-25.8,14.7-44.8,19.4v-0.9
		c0-8.5,6.2-26.2,18.5-53.3c-10.1,12.1-21.5,23.4-34.2,33.9c-17,13.9-30.5,20.9-40.6,20.9c-7.3,0-10.9-4.6-10.9-13.9
		c0-21.2,11.3-42.9,33.9-65.1c25.4-25.2,54.5-41.2,87.2-47.8c8.9-1.6,16.7-2.4,23.3-2.4C1018.4,110.2,1020.1,111.4,1020.1,113.8z"/>
</g>
<g>
	<path class="st1" d="M530.8,440.6c-1.6,4.2-3.5,8.4-5.6,12.4c-2.1,4-5.3,7.3-9.5,9.7c-3.4,1.6-7.2,2.8-11.2,3.6
		c-4,0.8-8.2,1.2-12.4,1.1c-4.2-0.1-8.4-0.5-12.4-1.2c-4-0.7-7.9-1.8-11.5-3.2c-43,48.9-91.1,73.4-144.4,73.6
		c-15.7,0-30.1-1.8-43-5.3c-12.9-3.5-24-8.8-33.2-15.9c-9.2-7.1-16.4-15.9-21.5-26.6c-5.1-10.7-7.7-23.2-7.7-37.5
		c0-11.3,1.8-21.8,5.3-31.5c3.5-9.7,8.4-18,14.7-25c6.3-7,13.6-12.4,22.1-16.4c8.5-3.9,17.6-5.9,27.3-5.9c10.3,0,20.1,1.5,29.4,4.5
		c9.3,3,18.4,8.6,27.3,16.7c8.7-4,17.2-6.1,25.4-6.1c6.1,0,11.5,1.2,16.4,3.5c4.8,2.3,9,5.6,12.6,9.7c3.5,4.1,6.2,9,8,14.7
		c1.8,5.7,2.7,11.8,2.7,18.5c0,9.1-1.6,18.4-4.7,28c-3.1,9.6-8.3,20.1-15.6,31.6c-7.9-16.6-16.5-31.9-25.9-46.2
		c-9.4-14.2-19.8-27.4-31.3-39.5c-9.1,7.7-15.7,17.2-20,28.5c-4.2,11.3-6.4,24.2-6.4,38.8c0,2.2,0,4.4,0.2,6.7
		c0.1,2.2,0.3,4.5,0.5,7c-6.1-6.7-9.1-14.7-9.1-24.2c0-10.9,2.7-21.5,8.2-31.8c5.5-10.3,13.1-19.8,23-28.5
		c-8.7-9.3-17.1-15.4-25.1-18.5c-8.1-3-16.4-4.5-24.8-4.5c-7.5,0-14.3,1.7-20.6,5c-6.3,3.3-11.7,7.8-16.2,13.5
		c-4.5,5.7-8.1,12.4-10.7,20.1c-2.6,7.8-3.9,16-3.9,24.7c0,11.5,2.9,22.1,8.6,31.6c5.8,9.6,13.7,17.8,23.8,24.7
		c10.1,6.9,22,12.2,35.7,15.9c13.7,3.7,28.6,5.6,44.5,5.6c45.8,0,86.9-20.5,123.2-61.5c-8.7-4.2-15.8-9.8-21.3-16.8
		c-5.6-7-9.5-14.5-11.8-22.6c-2.3-8.1-3.1-16.1-2.4-24.2c0.7-8.1,3.1-15.4,7.1-22c4-6.6,9.7-11.8,17-15.7c7.3-3.9,16.1-5.7,26.6-5.3
		c7.5,0.4,15,1.7,22.7,3.9c7.7,2.2,15,5.8,22.1,10.6c6.9-12.1,13.8-24.1,20.7-35.9c7-11.8,13.8-22.5,20.4-32.1
		c6.7-9.6,13.1-17.7,19.2-24.2c6.2-6.6,11.9-10.6,17.1-12.3l3.3,4.2c-2.8,2.4-5.2,4.7-7.1,6.8c-1.9,2.1-3.6,4.3-5,6.7
		c-1.4,2.3-2.6,4.9-3.6,7.9c-1,2.9-2.1,6.4-3.3,10.4c-3.4,13.1-6,27.3-7.7,42.4c-1.7,15.1-2.6,31.3-2.6,48.5c0,24.4,1,43.5,3,57.1
		c2,13.6,4.7,20.4,8.2,20.4c2,0,6.6-2.6,13.6-7.9l2.7,3.6c-6.5,5.3-12.8,10.7-19.1,16.2c-6.3,5.6-12.5,11.2-18.8,16.8
		c-1.6-7.5-3.1-15.3-4.4-23.5c-1.3-8.2-2.5-16.8-3.5-25.9l-0.6,0.3c-0.4-17-3.5-31.3-9.4-43.2c-5.9-11.8-13.2-20.9-22.1-27.4
		c-3.4,6.1-7.3,12.7-11.7,20c-4.3,7.3-8.7,14.4-13,21.5c-4.3,7.1-8.5,13.7-12.6,19.8c-4,6.2-7.6,11.1-10.6,14.7
		c-0.6,0.8-1.3,1.6-2,2.3c-0.7,0.7-1.4,1.5-2,2.3c1.2,0.4,2,0.6,2.4,0.6c10.3,2.6,20.3,2.1,30.1-1.7
		C514.4,453.6,523.2,448,530.8,440.6z M402.4,447.8c0.2-1.4,0.4-2.8,0.5-4.1c0.1-1.3,0.2-2.6,0.2-3.8c0-5.5-0.9-10.9-2.6-16.4
		c-1.7-5.5-4.1-10.3-7.3-14.7c-3.1-4.3-6.9-7.9-11.4-10.6c-4.4-2.7-9.5-4.1-15.1-4.1c-5.3,0-11.2,1.1-17.9,3.3
		c8.1,8.5,16.1,18.6,24.1,30.4c8,11.8,15.8,25.6,23.5,41.3c1.6-4,2.9-7.8,3.9-11.2C401.3,454.7,402,451.3,402.4,447.8z M475.7,445.1
		c6.5-8.5,13.4-18.9,20.9-31.2c7.5-12.3,15-25.3,22.7-39.1c-10.3-6.1-21.3-8.8-33-8.2c-6.5,0.4-12.4,2.3-17.7,5.8
		c-5.4,3.4-9.8,7.8-13.5,13c-3.6,5.3-6.4,11.2-8.2,17.9c-1.8,6.7-2.4,13.4-1.8,20.3c0.8,7.7,3.1,14.3,6.8,19.8
		c3.7,5.6,8.6,9.8,14.7,12.9c1.6-1.8,3.1-3.6,4.5-5.5C472.6,449,474.1,447.1,475.7,445.1z M553.9,398.5c0-27,2.4-49.9,7.3-68.4
		c1-4.2,2.4-9.1,4.2-14.7c1.8-5.6,3.9-11.8,6.4-18.6c-3.6,6.1-7.5,12.6-11.7,19.5c-4.1,7-8.2,13.7-12.1,20.3
		c-3.9,6.6-7.5,12.6-10.7,18c-3.2,5.5-5.8,9.8-7.6,13c-0.4,0.6-0.8,1.3-1.2,2.1c-0.4,0.8-0.8,1.5-1.2,2.1
		c5.2,4.2,10.1,9.4,14.7,15.6c4.5,6.2,8.5,13.5,12,22V398.5z"/>
	<path class="st1" d="M730.4,360.3c-5.5,10.3-13.5,28.1-24.2,53.3C694.1,441.7,688,458.1,688,463c0,3.2,1.7,4.8,5.1,4.8
		c3,0,7.2-1.1,12.4-3.3l2.1,4.2c-6.3,3.4-20.1,9.3-41.5,17.6c2.6-19.2,10.7-44.2,24.2-75.1c-19.8,1.2-35.6,8.8-47.5,22.7
		c-7.3,8.5-15.9,24.4-26,47.8c-4.6,1-11.5,3.4-20.6,7.3c4-8.1,12.3-27,24.8-56.9c13.5-32.7,20.3-50.4,20.3-53c0-3.4-1.7-5.1-5.1-5.1
		c-1.8,0-4.7,0.6-8.8,1.8l-1.2-4.5c16.6-5,29.4-9.6,38.5-13.6c-0.2,6.1-1.5,12.6-3.9,19.7c-2.2,5.5-10,21.8-23.3,49.1
		c11.7-11.7,29.8-18.7,54.2-20.9c5.5-9.9,11.4-23,17.9-39.4C715.4,365.5,722.3,363.5,730.4,360.3z"/>
	<path class="st1" d="M863.6,365.5c0,1.6-1.1,5.1-3.3,10.6c-5.7-1-12-1.5-19.1-1.5c-23.6,0-43.4,4.2-59.4,12.7
		c-17,9.1-30.9,23.8-41.8,44.2c-6.1,11.5-9.1,21.6-9.1,30.3c0,9.7,3.1,14.5,9.4,14.5c7.3,0,16.6-6,27.9-17.9
		c8.1-8.7,15-17.7,20.9-27c10.1-15.7,16.4-30.7,18.8-44.8c4.2,4,6.4,8.8,6.4,14.2c0,8.7-5.1,20.1-15.4,34.2l1.8-0.3l6.7-0.9
		c2.6-0.4,5.6-0.8,9.1-1.2c-12.1,40.6-24.9,71.2-38.5,91.8c-8.7,13.3-20.2,25-34.5,35.1c-16.2,11.5-31.3,17.3-45.4,17.3
		c-12.3,0-18.5-4.9-18.5-14.8c0-2,0.6-4.4,1.8-7.3c8.9,7.5,18.6,11.2,29.1,11.2c23.2,0,42.8-16.7,58.7-50
		c10.3-21.6,19.2-47.1,26.6-76.6c-10.1,11.3-20.6,21.4-31.5,30.3c-15.9,13.3-28.4,20-37.2,20c-8.9,0-13.3-5.5-13.3-16.7
		c0-17,8.9-35.8,26.6-56.6c14.7-17.2,31.5-30.7,50.3-40.6c20.4-10.7,41.2-16,62.4-16C860.1,359.7,863.6,361.6,863.6,365.5z"/>
	<path class="st1" d="M946.6,391.2c0,24-9.5,46.5-28.5,67.5c-15.1,16.6-28.6,24.8-40.3,24.8c-6.3,0-9.4-2.7-9.4-8.2
		c0-2,0.7-4.2,2.1-6.7c5.2,3.4,9.7,5.1,13.3,5.1c12.7,0,24.2-9.1,34.5-27.3c9.1-15.9,13.6-30.7,13.6-44.2
		c0-16.8-10.4-25.6-31.2-26.6c-16.8,42.6-41.5,106.4-74.2,191.4c-5,2.2-11.1,4.1-18.2,5.8c9.3-20.4,19.5-45.8,30.6-76.3
		c9.1-25.8,18.3-51.7,27.6-77.5c3.8-1,6.7-2,8.5-3c4-2.2,10.8-15.6,20.3-40.3c-1.8,0-3.1,0-3.9,0c-7.9,0-15.4,0.5-22.7,1.5
		l-8.5,21.5h-4.5l13.6-37.2c0.6,0,11.3-0.6,32.1-1.8l9.7-27.3h5.1l-9.4,27.6C933.4,360,946.6,370.4,946.6,391.2z"/>
	<path class="st1" d="M1055,367.3c0,4.2-2.3,9.4-7,15.4c-8.3,10.9-20.5,19.4-36.6,25.4c-7.9,3-13.7,4.5-17.6,4.5
		c-4.8,0-8.3-2.7-10.3-8.2c4.4,0.6,8,0.9,10.6,0.9c17.4,0,30.1-6.2,38.2-18.5c2.4-3.6,3.6-6.9,3.6-9.7c0-5-3.2-7.6-9.7-7.6
		c-15.7,0-30.7,11.6-44.8,34.8c-12.9,20.8-19.4,39.8-19.4,56.9c0,10.5,4.4,15.7,13.3,15.7c11.3,0,22.8-7,34.5-20.9
		c8.9-10.7,16.1-22.8,21.8-36.3c1.4,2.6,2.1,5,2.1,7.3c0,12.1-8.8,25.6-26.5,40.6c-17.7,14.9-32.8,22.4-45.3,22.4
		c-12.1,0-18.2-6.9-18.2-20.6c0-8.1,2-17.9,6.1-29.4c11.7-34.9,34-60,66.9-75.1c9.7-4.6,18.5-7,26.3-7S1055,361.2,1055,367.3z"/>
	<path class="st1" d="M1166.4,360.3c-5.9,11.3-13.9,29-24.2,53c-12.1,28.1-18.2,44.6-18.2,49.7c0,3.2,1.7,4.8,5.1,4.8
		c3,0,7.2-1.1,12.4-3.3l2.1,4.2c-6.1,3.4-20,9.3-41.8,17.6c2.4-16.4,7.7-34.4,15.7-54.2c-28.5,36.1-51,54.2-67.5,54.2
		c-6.9,0-10.3-3.7-10.3-11.2c0-5.6,1.6-12.5,4.8-20.6c2-5.2,10.9-24.6,26.6-58.1c4-8.5,6.1-14.2,6.1-17.3c0-3.4-1.7-5.1-5.1-5.1
		c-1.8,0-4.7,0.6-8.8,1.8l-1.2-4.5c16.6-5,29.4-9.6,38.5-13.6c-0.2,6.5-1.5,13-3.9,19.7c-2,4.8-9.8,21.2-23.3,49.1
		c-10.3,21.2-15.4,34.2-15.4,39.1c0,4.2,1.9,6.4,5.8,6.4c8.7,0,20.6-8.9,35.7-26.6c11.5-13.5,20.9-26.7,28.2-39.7
		c5.5-9.9,11.4-23,17.9-39.4C1151.4,365.5,1158.4,363.5,1166.4,360.3z M1174,295.8c0,9.7-5.8,19.3-17.3,28.8
		c-11.5,9.5-22.3,14.2-32.4,14.2c-12.5,0-18.8-4.6-18.8-13.9c0-5.9,2.3-12.1,7-18.8c4-6.1,8.8-11,14.2-14.8h6.7
		c-8.9,6.1-13.3,14-13.3,23.9c0,8.3,4.5,12.4,13.6,12.4c9.1,0,17.1-4.4,23.9-13.3c4.8-8.1,9.7-16.2,14.5-24.5
		C1173.4,291.8,1174,293.8,1174,295.8z"/>
</g>
</svg>
