<?xml version="1.0" encoding="utf-8"?>
<!-- Generator: Adobe Illustrator 24.2.3, SVG Export Plug-In . SVG Version: 6.00 Build 0)  -->
<svg version="1.1" id="Capa_1" xmlns="http://www.w3.org/2000/svg" xmlns:xlink="http://www.w3.org/1999/xlink" x="0px" y="0px"
	 viewBox="0 0 482.8 482.8" style="enable-background:new 0 0 482.8 482.8;" xml:space="preserve">
<style type="text/css">
	.st0{fill:#F5D7B4;}
	.st1{fill:#FFE6D2;}
	.st2{fill:#E86464;}
	.st3{fill:#BEA087;}
	.st4{fill:#A03C3C;}
	.st5{fill:#D2B496;}
</style>
<g>
	<polygon class="st0" points="145.4,79.3 81.4,79.3 81.4,151.4 145.4,105 	"/>
	<rect x="449.4" y="252.7" class="st1" width="0" height="146.6"/>
	<path class="st1" d="M241.4,102.1l-160,115.9v181.3h320V217.9L241.4,102.1z M241.4,360.1c-40.6-18.8-85.7-65-85.7-103.4
		c0-27.7,22.5-50.2,50.2-50.2c13.8,0,26.4,5.6,35.5,14.7c9.1-9.1,21.6-14.7,35.5-14.7c27.7,0,50.2,22.5,50.2,50.2
		C327.1,295.1,282.1,341.3,241.4,360.1z"/>
	<path class="st2" d="M276.9,206.4c-13.8,0-26.4,5.6-35.5,14.7c-9.1-9.1-21.6-14.7-35.5-14.7c-27.7,0-50.2,22.5-50.2,50.2
		c0,38.4,45.1,84.6,85.7,103.4c40.6-18.8,85.7-65,85.7-103.4C327.1,228.9,304.6,206.4,276.9,206.4z"/>
	<path class="st3" d="M465.4,431.3h-8h-432h-8c-4.4,0-8,3.6-8,8s3.6,8,8,8h448c4.4,0,8-3.6,8-8S469.8,431.3,465.4,431.3z"/>
	<rect x="73.4" y="47.3" class="st4" width="80" height="32"/>
	<polygon class="st5" points="457.4,431.3 457.4,399.3 449.4,399.3 449.4,399.3 401.4,399.3 81.4,399.3 33.4,399.3 25.4,399.3 
		25.4,431.3 	"/>
	<polygon class="st0" points="81.4,399.3 81.4,217.9 33.4,252.7 33.4,225.6 33.4,225.6 33.4,399.3 	"/>
	<polygon class="st0" points="401.4,217.9 401.4,399.3 449.4,399.3 449.4,252.7 	"/>
	<polygon class="st5" points="241.4,75 33.4,225.6 33.4,252.7 81.4,217.9 241.4,102.1 401.4,217.9 449.4,252.7 449.4,252.7 
		449.4,225.6 	"/>
	<polygon class="st4" points="241.4,75 449.4,225.6 464,236.2 482.8,210.3 241.4,35.5 145.4,105 81.4,151.4 0,210.3 18.8,236.2 
		33.4,225.6 33.4,225.6 	"/>
</g>
</svg>
