<?xml version="1.0" encoding="utf-8"?>
<!-- Generator: Adobe Illustrator 24.2.3, SVG Export Plug-In . SVG Version: 6.00 Build 0)  -->
<svg version="1.1" id="Capa_1" xmlns="http://www.w3.org/2000/svg" xmlns:xlink="http://www.w3.org/1999/xlink" x="0px" y="0px"
	 viewBox="0 0 800 800" style="enable-background:new 0 0 800 800;" xml:space="preserve">
<style type="text/css">
	.st0{fill:#FFE6B9;}
	.st1{fill:#EBD2AA;}
	.st2{fill:#82C8DC;}
	.st3{fill:#B4E6F0;}
	.st4{fill:#D9FFFF;}
	.st5{fill:#A0DCE6;}
	.st6{fill:#EBFFFF;}
</style>
<g>
	<path class="st0" d="M400.2,265.8c-7.9,6.6-15.2,13.8-21.9,21.5c100.5,31.8,173.4,125.8,173.4,236.8c0,28.8-4.9,56.5-14,82.3
		c10.4-0.7,20.5-2.3,30.4-4.6c7.2-24.7,11.2-50.7,11.2-77.7C579.3,406.1,504.7,305.1,400.2,265.8z"/>
	<path class="st1" d="M478.8,657.9c-40.4,52.8-104,86.9-175.4,86.9c-121.7,0-220.7-99-220.7-220.7c0-121.1,98.1-219.8,219-220.7
		c4.7-9.4,10-18.5,15.8-27.2c-4.7-0.3-9.4-0.4-14.1-0.4C166.3,275.9,55.2,387,55.2,524.1s111.2,248.3,248.3,248.3
		c86.3,0,162.2-44,206.7-110.7C499.5,661.1,489.1,659.8,478.8,657.9z"/>
	<polygon class="st2" points="469,64.2 400,64.2 462.9,137.9 496.9,137.9 	"/>
	<polygon class="st3" points="551.4,137.9 585.4,137.9 648.3,64.2 579.3,64.2 	"/>
	<polygon class="st4" points="524.1,64.2 579.3,64.2 524.1,0 469,64.2 	"/>
	<polygon class="st5" points="524.1,64.2 469,64.2 496.9,137.9 524.1,137.9 551.4,137.9 579.3,64.2 	"/>
	<polygon class="st5" points="455.6,0 400,64.2 469,64.2 	"/>
	<polygon class="st6" points="648.3,64.2 592.6,0 579.3,64.2 	"/>
	<polygon class="st3" points="592.6,0 524.1,0 579.3,64.2 	"/>
	<polygon class="st3" points="524.1,0 455.6,0 469,64.2 	"/>
	<path class="st0" d="M772.4,413.8c0-110.8-73-204.9-173.3-236.7l7.8-39.2h-21.5h-34h-27.2v55.2c121.7,0,220.7,99,220.7,220.7
		c0,121.7-99,220.7-220.7,220.7s-220.7-99-220.7-220.7c0-97.4,63.5-180.3,151.2-209.5l-5.4-27.2c-43.7,13.9-82.3,39.6-111.8,73.3
		c-11.1-1.4-22.5-2.1-34-2.1C151.3,248.3,27.6,372,27.6,524.1S151.3,800,303.4,800c102.2,0,191.6-55.8,239.2-138.6
		C671,651.9,772.4,544.5,772.4,413.8z M303.4,772.4c-137.1,0-248.3-111.2-248.3-248.3s111.2-248.3,248.3-248.3
		c4.7,0,9.4,0.1,14.1,0.4c-5.8,8.7-11.1,17.8-15.8,27.2c-16.6,33.3-25.9,70.7-25.9,110.3c0,121.4,87.6,222.8,203,244.1
		c10.2,1.9,20.7,3.2,31.3,3.8C465.7,728.4,389.7,772.4,303.4,772.4z"/>
	<path class="st1" d="M303.4,413.8c0,121.7,99,220.7,220.7,220.7s220.7-99,220.7-220.7c0-121.7-99-220.7-220.7-220.7v-55.2h-27.2
		h-34h-21.5l7.8,39.2l5.4,27.2C366.9,233.5,303.4,316.4,303.4,413.8z M331,413.8c0-37.8,10.9-73,29.7-102.8
		c94,25.3,163.4,111.3,163.4,213.1c0,29-5.6,56.7-15.9,82.1C409.2,598.2,331,514.9,331,413.8z M717.2,413.8
		c0,91.3-63.7,168.1-149.1,188c-9.9,2.3-20,3.9-30.4,4.6c9-25.8,14-53.4,14-82.3c0-111-72.9-205-173.4-236.8
		c6.7-7.7,14.1-14.9,21.9-21.5c33.6-28.1,76.8-45.1,123.9-45.1C630.6,220.7,717.2,307.3,717.2,413.8z"/>
</g>
</svg>
