<?xml version="1.0" encoding="utf-8"?>
<!-- Generator: Adobe Illustrator 24.2.3, SVG Export Plug-In . SVG Version: 6.00 Build 0)  -->
<svg version="1.1" xmlns="http://www.w3.org/2000/svg" xmlns:xlink="http://www.w3.org/1999/xlink" x="0px" y="0px"
	 viewBox="0 0 800 800" style="enable-background:new 0 0 800 800;" xml:space="preserve">
<style type="text/css">
	.st0{display:none;}
	.st1{display:inline;}
	.st2{fill:none;stroke:#000000;stroke-width:7;stroke-linecap:round;stroke-miterlimit:10;}
	.st3{fill:none;stroke:#000000;stroke-width:7;stroke-miterlimit:10;}
	.st4{fill:none;stroke:#000000;stroke-width:7;stroke-linejoin:round;stroke-miterlimit:10;}
	.st5{fill:none;stroke:#000000;stroke-width:7;stroke-linecap:round;stroke-linejoin:round;stroke-miterlimit:10;}
</style>
<g id="Capa_1" class="st0">
	<path class="st1" d="M398.3,671.3c-149.6,0-271.4-121.7-271.4-271.3c0-149.6,121.7-271.4,271.4-271.4
		c149.6,0,271.3,121.7,271.3,271.4C669.6,549.6,547.9,671.3,398.3,671.3z M398.3,148.3c-138.8,0-251.8,112.9-251.8,251.8
		c0,138.8,112.9,251.7,251.8,251.7C537.1,651.7,650,538.8,650,400C650,261.2,537.1,148.3,398.3,148.3z M69.2,660.1H41.4
		c-5.4,0-9.8-4.4-9.8-9.8v-305C12.9,337,0,319.2,0,298.6V161c0-5.4,4.4-9.8,9.8-9.8s9.8,4.4,9.8,9.8v127.8h10.7V161
		c0-5.4,4.4-9.8,9.8-9.8s9.8,4.4,9.8,9.8v127.8h10.7V161c0-5.4,4.4-9.8,9.8-9.8c5.4,0,9.8,4.4,9.8,9.8v127.8H91V161
		c0-5.4,4.4-9.8,9.8-9.8c5.4,0,9.8,4.4,9.8,9.8v137.6c0,20.6-12.9,38.4-31.6,46.8v305C79,655.7,74.6,660.1,69.2,660.1z M51.2,640.5
		h8.1V350.3h-8.1V640.5z M21.3,308.4c4.6,12.9,18.1,22.3,34,22.3s29.4-9.4,34-22.3H21.3z M754.1,657.6h-28.6c-5.4,0-9.8-4.4-9.8-9.8
		V155.3c0-4,2.5-7.7,6.3-9.1c3.8-1.5,8.1-0.5,10.8,2.5c2.2,2.4,54,59.9,63.2,141.4c9,79.3,0.4,210,0,215.6c-0.3,5.1-4.6,9.1-9.8,9.1
		h-22.3v132.9C763.9,653.2,759.5,657.6,754.1,657.6z M735.3,638h9V514.9h-9V638z M735.3,495.3h41.7c1.8-31.5,6.9-137.2-0.5-202.9
		c-5.2-46.2-25.9-84.8-41.2-107.7L735.3,495.3L735.3,495.3z M398.3,586.2C295.6,586.2,212,502.7,212,400
		c0-102.7,83.5-186.2,186.2-186.2c102.7,0,186.2,83.5,186.2,186.2C584.5,502.7,501,586.2,398.3,586.2z M398.3,233.4
		c-91.9,0-166.6,74.8-166.6,166.6c0,91.9,74.8,166.6,166.6,166.6c91.9,0,166.6-74.7,166.6-166.6
		C564.9,308.1,490.2,233.4,398.3,233.4z M205.4,276.4c-1.8,0-3.5-0.5-5.1-1.5c-4.6-2.8-6-8.9-3.2-13.5
		c32.4-52.7,92.3-80.7,94.9-81.9c4.9-2.3,10.7-0.1,13,4.8c2.3,4.9,0.1,10.7-4.8,13l0,0c-0.6,0.3-57.1,26.8-86.4,74.3
		C211.9,274.7,208.7,276.4,205.4,276.4z"/>
</g>
<g id="Слой_2">
	<polyline class="st2" points="18.8,159.3 18.8,300.1 112.4,300.1 112.4,159.3 	"/>
	<line class="st2" x1="49.6" y1="159.3" x2="49.6" y2="300.1"/>
	<line class="st2" x1="80.3" y1="159.3" x2="80.3" y2="300.1"/>
	<path class="st3" d="M18.8,302.1c0,0,8.5,38.2,46.4,38.3c37.3,0.1,43.9-23.7,47.1-37.9"/>
	<polyline class="st4" points="50.9,340.4 50.9,649.8 78.8,649.8 78.8,339.2 	"/>
	<circle class="st4" cx="398.3" cy="405.6" r="171.9"/>
	<circle class="st4" cx="398.3" cy="400" r="260.9"/>
	<path class="st5" d="M205.1,267.2c1.5-1.5,42.8-68.8,112.5-86.8"/>
	<path class="st5" d="M733,504.6v142.6h-28.9V157c0,0,64.7,80.3,65.1,171.5s-5.5,176.1-5.5,176.1h-59.6"/>
</g>
</svg>
