<?xml version="1.0" encoding="utf-8"?>
<!-- Generator: Adobe Illustrator 24.2.3, SVG Export Plug-In . SVG Version: 6.00 Build 0)  -->
<svg version="1.1" id="Слой_1" xmlns="http://www.w3.org/2000/svg" xmlns:xlink="http://www.w3.org/1999/xlink" x="0px" y="0px"
	 viewBox="0 0 1178 1524" style="enable-background:new 0 0 1178 1524;" xml:space="preserve">
<style type="text/css">
	.st0{fill:none;}
	.st1{fill:#C7A27C;}
	.st2{font-family:'GeometricSlab703BT-Bold';}
	.st3{font-size:80px;}
	.st4{fill:#FFEBE1;}
	.st5{fill:#FFE1CD;}
	.st6{fill:#FACD91;}
	.st7{fill:#F0BE7D;}
	.st8{fill:#FFFFFF;}
	.st9{fill:#F5D7B4;}
	.st10{fill:#FFE6D2;}
	.st11{fill:#E86464;}
	.st12{fill:#BEA087;}
	.st13{fill:#A03C3C;}
	.st14{fill:#D2B496;}
	.st15{fill:#64826E;}
	.st16{fill:#55646E;}
	.st17{fill:#FFE1AF;}
	.st18{fill:#EBD296;}
	.st19{fill:#D7C38C;}
	.st20{fill:#FFE6B9;}
	.st21{fill:#EBD2AA;}
	.st22{fill:#82C8DC;}
	.st23{fill:#B4E6F0;}
	.st24{fill:#D9FFFF;}
	.st25{fill:#A0DCE6;}
	.st26{fill:#EBFFFF;}
	.st27{fill:#FAEEE2;}
	.st28{fill:#FFDCAA;}
	.st29{fill:#F5E1D2;}
	.st30{font-family:'LemonMilkRUSBYLYAJKA';}
	.st31{font-size:60px;}
	.st32{font-size:31.5231px;}
</style>
<image style="display:none;overflow:visible;" width="53" height="48" id="house__x28_1_x29__xA0_Изображение_2_" xlink:href="D8795046.png"  transform="matrix(1.9605 0 0 1.9605 -11.8234 399.7481)">
</image>
<g>
	<rect x="0" y="131.1" class="st0" width="337" height="61.8"/>
	<text transform="matrix(1 0 0 1 0 188.7399)" class="st1 st2 st3">12:00</text>
</g>
<g>
	<path class="st4" d="M430,536.6v-45.8c0-1.6-1.3-2.9-2.9-2.9h-45.8c0,0,0,31.1,0,48.6c0,0.2,0,0.5,0,0.7c0.3,0.1,0.6,0.3,0.9,0.4
		c0.2,0.1,0.5,0.1,0.7,0.2c0,0,0.1,0,0.1,0c0.3,0.1,0.7,0.1,1.1,0.1c2.8,0,2.9-1.4,5.7-1.4c0,0,0,0,0,0s0,0,0,0
		c2.9,0,2.9,1.4,5.7,1.4c2.7,0,2.9-1.3,5.3-1.4c0.1,0,0.3,0,0.4,0h0h0c2.9,0,2.9,1.4,5.7,1.4c0,0,0.1,0,0.1,0c0.3,0,0.6,0,0.9-0.1
		c0.2,0,0.3-0.1,0.4-0.1c0.1,0,0.2-0.1,0.4-0.1c1.3-0.4,1.8-1.2,3.9-1.2c2.9,0,2.9,1.4,5.7,1.4c2.9,0,2.9-1.4,5.7-1.4c0,0,0,0,0,0
		c0,5.6-1,11.2-2.5,16.6c0,0,0,0,0,0c-3.5,11.9-9.9,23.3-15.8,33.8c-2.8,5-5.5,9.6-7.7,14.1c-1,2.1-4.1,2.1-5.1,0
		c-0.1-0.3-0.3-0.6-0.4-0.8c1.7,7.3,3,13.8,3,19.3v18.7c0,4.1-2.4,7.6-4.1,8.4l-2,1c-0.6,0.3-1.1,1.6-1.1,3.1c0,1.7,0.6,3.1,1.3,3.1
		h19.9c1.7,0,3.1-1.4,3.1-3.1c0-1.5-1.1-2.8-2.5-3.1l-4.9-1c-4-0.8-6.9-4.3-6.9-8.4v-18.7C398.5,600.7,430,570.6,430,536.6z
		 M392.8,528c-1.6,0-2.9-1.3-2.9-2.9c0-1.6,1.3-2.9,2.9-2.9c1.6,0,2.9,1.3,2.9,2.9C395.7,526.7,394.4,528,392.8,528z M398.5,508
		c-1.6,0-2.9-1.3-2.9-2.9c0-1.6,1.3-2.9,2.9-2.9c1.6,0,2.9,1.3,2.9,2.9C401.4,506.7,400.1,508,398.5,508z M412.8,522.3
		c-1.6,0-2.9-1.3-2.9-2.9c0-1.6,1.3-2.9,2.9-2.9s2.9,1.3,2.9,2.9C415.7,521,414.4,522.3,412.8,522.3z"/>
	<path class="st5" d="M388.5,650.7c0-1.5,0.4-2.8,1.1-3.1l2-1c1.7-0.8,4.1-4.3,4.1-8.4v-18.7c0-5.5-1.2-12-3-19.3c0,0,0,0,0,0
		c0,0,0,0.1,0,0.1c-2.1-4.2-4.6-8.6-7.2-13.3c-5.9-10.4-12.4-21.8-15.8-33.8c0,0,0,0,0,0c-1.6-5.4-2.5-11-2.5-16.6
		c2.8,0,2.9,1.4,5.7,1.4c2.9,0,2.9-1.4,5.7-1.4c0.2,0,0.3,0,0.5,0c0,0,0.1,0,0.1,0c0.1,0,0.2,0,0.4,0c0,0,0,0,0,0
		c0.1,0,0.3,0,0.4,0.1c0,0,0,0,0.1,0c0.1,0,0.2,0.1,0.3,0.1c0,0,0,0,0,0c0.4,0.1,0.8,0.3,1.2,0.5c0-0.2,0-0.5,0-0.7
		c0-17.5,0-48.6,0-48.6h-17.2c-1.6,0-2.9,1.3-2.9,2.9v45.8c0,34,31.5,64.1,31.5,83v18.7c0,4.1-2.9,7.6-6.9,8.4l-4.9,1
		c-1.5,0.3-2.5,1.6-2.5,3.1c0,1.7,1.4,3.1,3.1,3.1h8.2C389.1,653.9,388.5,652.5,388.5,650.7z M375.7,510.8c1.6,0,2.9,1.3,2.9,2.9
		c0,1.6-1.3,2.9-2.9,2.9c-1.6,0-2.9-1.3-2.9-2.9C372.8,512.1,374.1,510.8,375.7,510.8z"/>
	<path class="st6" d="M412.9,553.8c-2,0-2.6-0.7-3.8-1.1c-0.2-0.1-0.5-0.1-0.7-0.2c0,0-0.1,0-0.1,0c-0.3-0.1-0.7-0.1-1.1-0.1
		c-2.8,0-2.9,1.4-5.7,1.4c0,0,0,0,0,0s0,0,0,0c-2.9,0-2.9-1.4-5.7-1.4c-2.7,0-2.9,1.3-5.3,1.4c-0.1,0-0.3,0-0.4,0h0h0
		c-2.9,0-2.9-1.4-5.7-1.4c0,0-0.1,0-0.1,0c-0.3,0-0.6,0-0.9,0.1c-0.2,0-0.3,0.1-0.4,0.1c-0.1,0-0.2,0.1-0.4,0.1c0,0,0,0-0.1,0
		c2.1,17.8,7.1,34,10.3,47.6c0,0,0,0,0,0c0.1,0.3,0.3,0.6,0.4,0.8c1,2.1,4.1,2.1,5.1,0c2.2-4.5,4.8-9.1,7.7-14.1
		c5.9-10.4,12.4-21.8,15.8-33.8c-0.8-0.4-1.5-0.9-3.2-0.9C415.7,552.3,415.7,553.8,412.9,553.8z M395.7,568.1
		c-1.6,0-2.9-1.3-2.9-2.9s1.3-2.9,2.9-2.9s2.9,1.3,2.9,2.9S397.3,568.1,395.7,568.1z M401.4,579.5c-1.6,0-2.9-1.3-2.9-2.9
		s1.3-2.9,2.9-2.9c1.6,0,2.9,1.3,2.9,2.9S403,579.5,401.4,579.5z"/>
	<path class="st7" d="M382.4,552.6C382.4,552.6,382.4,552.6,382.4,552.6C382.4,552.6,382.4,552.6,382.4,552.6
		c-1,0.3-1.6,0.9-2.8,1.1c0,0,0,0,0,0c-0.1,0-0.2,0-0.3,0c0,0,0,0,0,0c-0.1,0-0.2,0-0.3,0c0,0,0,0-0.1,0c-0.1,0-0.2,0-0.4,0
		c-2.9,0-2.9-1.4-5.7-1.4c-1.6,0-2.3,0.5-3.2,0.9c3.5,11.9,9.9,23.3,15.8,33.8c2.7,4.7,5.1,9.1,7.2,13.3c0,0,0-0.1,0-0.1
		C389.4,586.6,384.5,570.4,382.4,552.6z"/>
	<circle class="st7" cx="401.4" cy="576.6" r="2.9"/>
	<circle class="st8" cx="412.8" cy="519.4" r="2.9"/>
	<circle class="st4" cx="375.7" cy="513.7" r="2.9"/>
	<circle class="st8" cx="398.5" cy="505.1" r="2.9"/>
	<circle class="st8" cx="392.8" cy="525.2" r="2.9"/>
	<circle class="st7" cx="395.7" cy="565.2" r="2.9"/>
	<path class="st8" d="M378.5,536.6c0.2,0,0.3,0,0.5,0C378.8,536.6,378.6,536.6,378.5,536.6z"/>
	<path class="st8" d="M379.1,536.6c0.1,0,0.2,0,0.4,0C379.3,536.6,379.2,536.6,379.1,536.6z"/>
	<path class="st8" d="M379.9,536.7c0.1,0,0.2,0.1,0.3,0.1C380.1,536.8,380,536.8,379.9,536.7z"/>
	<path class="st8" d="M381.4,537.3c0,5.2,0.4,10.3,1,15.3c0,0,0,0,0,0c0,0,0,0,0.1,0c0.1,0,0.2-0.1,0.4-0.1c0.1,0,0.3-0.1,0.4-0.1
		c0.3,0,0.6-0.1,0.9-0.1c0,0,0.1,0,0.1,0c2.9,0,2.9,1.4,5.7,1.4h0h0c0.2,0,0.3,0,0.4,0c2.4-0.1,2.6-1.4,5.3-1.4
		c2.9,0,2.9,1.4,5.7,1.4c0,0,0,0,0,0s0,0,0,0c2.9,0,2.9-1.4,5.7-1.4c0.4,0,0.8,0,1.1,0.1c0,0,0.1,0,0.1,0c0.3,0.1,0.5,0.1,0.7,0.2
		c1.2,0.4,1.8,1.1,3.8,1.1c2.9,0,2.9-1.4,5.7-1.4c1.6,0,2.3,0.5,3.2,0.9c0,0,0,0,0,0c1.6-5.4,2.5-11,2.5-16.6c0,0,0,0,0,0
		c-2.9,0-2.9,1.4-5.7,1.4c-2.9,0-2.9-1.4-5.7-1.4c-2.1,0-2.7,0.8-3.9,1.2c-0.1,0-0.2,0.1-0.4,0.1c-0.1,0-0.3,0.1-0.4,0.1
		c-0.3,0-0.6,0.1-0.9,0.1c0,0-0.1,0-0.1,0c-2.9,0-2.9-1.4-5.7-1.4h0h0c-0.2,0-0.3,0-0.4,0c-2.4,0.1-2.6,1.4-5.3,1.4
		c-2.9,0-2.9-1.4-5.7-1.4c0,0,0,0,0,0s0,0,0,0c-2.9,0-2.9,1.4-5.7,1.4c-0.4,0-0.8,0-1.1-0.1c0,0-0.1,0-0.1,0
		c-0.3-0.1-0.5-0.1-0.7-0.2C381.9,537.6,381.7,537.5,381.4,537.3c-0.4-0.2-0.7-0.4-1.2-0.5C380.7,537,381,537.1,381.4,537.3z"/>
	<path class="st8" d="M379.5,536.7c0.1,0,0.3,0,0.4,0.1C379.7,536.7,379.6,536.7,379.5,536.7z"/>
	<path class="st8" d="M379.3,553.7C379.3,553.7,379.3,553.7,379.3,553.7C379.3,553.7,379.3,553.7,379.3,553.7z"/>
	<path class="st8" d="M379,553.7C379,553.7,378.9,553.7,379,553.7C378.9,553.7,379,553.7,379,553.7z"/>
	<path class="st8" d="M379.6,553.7C379.6,553.7,379.6,553.7,379.6,553.7C379.6,553.7,379.6,553.7,379.6,553.7z"/>
	<path class="st4" d="M378.5,553.8c0.1,0,0.3,0,0.4,0c0,0,0,0,0.1,0c0.1,0,0.2,0,0.3,0c0,0,0,0,0,0c0.1,0,0.2,0,0.3,0c0,0,0,0,0,0
		c1.3-0.2,1.8-0.7,2.8-1.1c0,0,0,0,0,0c-0.6-5-1-10.1-1-15.3c-0.4-0.2-0.7-0.4-1.2-0.5c0,0,0,0,0,0c-0.1,0-0.2-0.1-0.3-0.1
		c0,0,0,0-0.1,0c-0.1,0-0.2,0-0.4-0.1c0,0,0,0,0,0c-0.1,0-0.2,0-0.4,0c0,0-0.1,0-0.1,0c-0.1,0-0.3,0-0.5,0c-2.9,0-2.9,1.4-5.7,1.4
		c-2.9,0-2.9-1.4-5.7-1.4c0,5.6,1,11.2,2.5,16.6c0,0,0,0,0,0c0.8-0.4,1.5-0.9,3.2-0.9C375.7,552.3,375.7,553.8,378.5,553.8z"/>
</g>
<g>
	<polygon class="st9" points="423.4,36.4 387.7,36.4 387.7,76.7 423.4,50.8 	"/>
	<rect x="593.1" y="133.2" class="st10" width="0" height="81.8"/>
	<path class="st10" d="M477,49.1l-89.3,64.7V215h178.6V113.8L477,49.1z M477,193.2c-22.7-10.5-47.8-36.3-47.8-57.7
		c0-15.5,12.6-28,28-28c7.7,0,14.7,3.1,19.8,8.2c5.1-5.1,12.1-8.2,19.8-8.2c15.5,0,28,12.6,28,28C524.8,156.9,499.7,182.7,477,193.2
		z"/>
	<path class="st11" d="M496.8,107.4c-7.7,0-14.7,3.1-19.8,8.2c-5.1-5.1-12.1-8.2-19.8-8.2c-15.5,0-28,12.6-28,28
		c0,21.4,25.2,47.2,47.8,57.7c22.7-10.5,47.8-36.3,47.8-57.7C524.8,120,512.3,107.4,496.8,107.4z"/>
	<path class="st12" d="M602,232.9h-4.5H356.4h-4.5c-2.5,0-4.5,2-4.5,4.5s2,4.5,4.5,4.5H602c2.5,0,4.5-2,4.5-4.5
		S604.4,232.9,602,232.9z"/>
	<rect x="383.2" y="18.6" class="st13" width="44.7" height="17.9"/>
	<polygon class="st14" points="597.5,232.9 597.5,215 593.1,215 593.1,215 566.3,215 387.7,215 360.9,215 356.4,215 356.4,232.9 	
		"/>
	<polygon class="st9" points="387.7,215 387.7,113.8 360.9,133.2 360.9,118.1 360.9,118.1 360.9,215 	"/>
	<polygon class="st9" points="566.3,113.8 566.3,215 593.1,215 593.1,133.2 	"/>
	<polygon class="st14" points="477,34.1 360.9,118.1 360.9,133.2 387.7,113.8 477,49.1 566.3,113.8 593.1,133.2 593.1,133.2 
		593.1,118.1 	"/>
	<polygon class="st13" points="477,34.1 593.1,118.1 601.2,124 611.7,109.6 477,12 423.4,50.8 387.7,76.7 342.2,109.6 352.7,124 
		360.9,118.1 360.9,118.1 	"/>
</g>
<g>
	<path class="st15" d="M586.8,496.7L586.8,496.7c0.1,0.3,0.2,0.5,0.3,0.8C587,497.2,586.9,497,586.8,496.7z"/>
	<path class="st15" d="M541.9,496.7c-0.1,0.3-0.2,0.5-0.3,0.8C541.7,497.2,541.8,497,541.9,496.7L541.9,496.7z"/>
	<path class="st15" d="M603.2,539.9L589,502.6l0.9,2.5l-19.6,19.6c-3.3,3.3-8.7,3.3-12,0l-7.7-7.7l0,0l0,0l-4,23
		c-2.1,12-3.2,24.6-3.5,37.4h0.1H594c4.7,0,8.5,3.8,8.5,8.5v42.4c0,4.7-3.8,8.5-8.5,8.5h-50.9c0,9.4,3.5,17,7.7,17H594
		c9.4,0,17-7.6,17-17v-54.5C611,567.7,608.4,553.4,603.2,539.9z"/>
	<path class="st16" d="M542.7,494.6c0.2-0.5,0.4-1.1,0.6-1.6c0.1-0.4,0.3-0.7,0.4-1.1c0.3-0.8,0.5-1.6,0.8-2.4c0,0,0,0,0,0
		c1.2-3.6,2.2-7.3,3-11c-0.6,2.6-1.3,5.2-2.1,7.8c-0.6,1.9-1.1,3.7-1.7,5.6c-0.5,1.6-1.1,3.3-1.7,4.9c-0.1,0.3-0.2,0.5-0.3,0.8
		C542,496.5,542.4,495.6,542.7,494.6z"/>
	<path class="st16" d="M543.2,636.6h-8.5c-0.6,0-1.2-0.1-1.7-0.2c-3.3-0.7-5.9-3.3-6.6-6.6c-0.1-0.6-0.2-1.1-0.2-1.7v-42.4
		c0-0.7,0.1-1.4,0.3-2.1c0-0.2,0.1-0.4,0.2-0.5c0.8-2.5,2.8-4.5,5.2-5.3c0.4-0.1,0.7-0.2,1.1-0.3c0.6-0.1,1.1-0.2,1.7-0.2h8.5
		c0.2-12.8,1.4-25.4,3.5-37.4l4-23L538.8,505l1.6-4.1l1.3-3.4l-5.2,13.7l-10.9,28.7c-5.1,13.5-7.8,27.8-7.8,42.3v54.5
		c0,9.4,7.6,17,17,17h16.2C546.6,653.6,543.2,646,543.2,636.6z"/>
	<path class="st17" d="M560.1,428.9h-1.5v14.3c0,18.6-1.5,37-4.5,54.3l-0.6,3.4l-2.8,16l7.7,7.7c3.3,3.3,8.7,3.3,12,0l19.6-19.6
		l-0.9-2.5l-0.6-1.6l-1.3-3.4c-0.1-0.3-0.2-0.5-0.3-0.8c-6.4-17.1-9.7-35.2-9.7-53.5v-15.5c-1.2,0.7-2.7,1.1-4.2,1.1H560.1z"/>
	<path class="st17" d="M551.6,445.8c0-0.9,0-1.7,0-2.6C551.6,444,551.6,444.9,551.6,445.8z"/>
	<path class="st17" d="M542.7,494.6c-0.3,1-0.7,1.9-1.1,2.9C542,496.5,542.4,495.6,542.7,494.6z"/>
	<path class="st17" d="M544.4,489.5C544.4,489.5,544.4,489.5,544.4,489.5C544.4,489.5,544.4,489.5,544.4,489.5z"/>
	<path class="st17" d="M543.7,491.9c-0.1,0.4-0.3,0.7-0.4,1.1C543.4,492.6,543.5,492.2,543.7,491.9z"/>
	<path class="st18" d="M538.8,505l11.9,11.9l0,0l0,0l2.8-16l0.6-3.4c3-17.4,4.5-35.8,4.5-54.3v-14.3h-2.7c-1.5,0-3-0.4-4.2-1.1v1.1
		v14.3c0,0,0,0,0,0c0,0.9,0,1.7,0,2.6c-0.1,2.4-0.2,4.9-0.3,7.3c0,0.6-0.1,1.3-0.1,1.9c-0.3,3.3-0.6,6.6-1.1,9.9c0,0.1,0,0.1,0,0.2
		c-0.5,3.5-1.1,7-1.9,10.4c0,0.1,0,0.2-0.1,0.3c-0.2,0.9-0.4,1.8-0.6,2.7c-0.9,3.7-1.9,7.4-3,11c0,0,0,0,0,0
		c-0.3,0.8-0.5,1.6-0.8,2.4c-0.1,0.4-0.3,0.7-0.4,1.1c-0.2,0.5-0.4,1.1-0.6,1.6c-0.3,1-0.7,1.9-1.1,2.9l-1.3,3.4L538.8,505z"/>
	<path class="st17" d="M543.2,636.6H594c4.7,0,8.5-3.8,8.5-8.5v-42.4c0-4.7-3.8-8.5-8.5-8.5h-50.8c0,1.6-0.1,3.3-0.1,4.9V636.6
		L543.2,636.6z M557.4,594.2c2.7,0,5.2,1.1,7,2.9c1.8-1.8,4.3-2.9,7-2.9c5.5,0,9.9,4.4,9.9,9.9c0,7.6-8.9,16.7-16.9,20.4
		c-8-3.7-16.9-12.8-16.9-20.4C547.5,598.7,551.9,594.2,557.4,594.2z"/>
	<path class="st17" d="M534.7,636.6c-0.6,0-1.2-0.1-1.7-0.2C533.5,636.6,534.1,636.6,534.7,636.6z"/>
	<path class="st17" d="M526.4,629.8c-0.1-0.6-0.2-1.1-0.2-1.7C526.2,628.7,526.3,629.3,526.4,629.8z"/>
	<path class="st17" d="M526.5,583.6c0-0.2,0.1-0.4,0.2-0.5C526.6,583.2,526.5,583.4,526.5,583.6z"/>
	<path class="st17" d="M533,577.4c0.6-0.1,1.1-0.2,1.7-0.2C534.1,577.3,533.5,577.3,533,577.4z"/>
	<path class="st17" d="M531.9,577.7c0.4-0.1,0.7-0.2,1.1-0.3C532.6,577.5,532.2,577.6,531.9,577.7z"/>
	<path class="st17" d="M526.4,629.8c0.7,3.3,3.3,5.9,6.6,6.6C529.7,635.8,527.1,633.2,526.4,629.8z"/>
	<path class="st18" d="M533,577.4c-0.4,0.1-0.7,0.2-1.1,0.3c-2.5,0.9-4.4,2.8-5.2,5.3c-0.1,0.2-0.1,0.4-0.2,0.5
		c-0.2,0.7-0.3,1.4-0.3,2.1v42.4c0,0.6,0.1,1.2,0.2,1.7c0.7,3.3,3.3,5.9,6.6,6.6c0.6,0.1,1.1,0.2,1.7,0.2h8.5v-54.5
		c0-1.6,0.1-3.3,0.1-4.9h-0.1h-8.5C534.1,577.3,533.5,577.3,533,577.4z"/>
	<path class="st18" d="M564.4,411.9v12.7c0,2.3-1.9,4.2-4.2,4.2h12.7c1.5,0,3-0.4,4.2-1.1c2.5-1.5,4.2-4.2,4.2-7.3v-4.2
		c0-4.7-3.8-8.5-8.5-8.5h-12.7C562.5,407.7,564.4,409.6,564.4,411.9z"/>
	<path class="st19" d="M558.6,428.9h1.5c2.3,0,4.2-1.9,4.2-4.2v-12.7c0-2.3-1.9-4.2-4.2-4.2h-4.2c-4.7,0-8.5,3.8-8.5,8.5v4.2
		c0,3.1,1.7,5.9,4.2,7.3c1.2,0.7,2.7,1.1,4.2,1.1H558.6z"/>
	<path class="st11" d="M564.4,624.5c8-3.7,16.9-12.8,16.9-20.4c0-5.5-4.4-9.9-9.9-9.9c-2.7,0-5.2,1.1-7,2.9c-1.8-1.8-4.3-2.9-7-2.9
		c-5.5,0-9.9,4.4-9.9,9.9C547.5,611.7,556.4,620.8,564.4,624.5z"/>
</g>
<g>
	<path class="st4" d="M505.7,538.1v-45.8c0-1.6-1.3-2.9-2.9-2.9h-45.8c0,0,0,31.1,0,48.6c0,0.2,0,0.5,0,0.7c0.3,0.1,0.6,0.3,0.9,0.4
		c0.2,0.1,0.5,0.1,0.7,0.2c0,0,0.1,0,0.1,0c0.3,0.1,0.7,0.1,1.1,0.1c2.8,0,2.9-1.4,5.7-1.4c0,0,0,0,0,0s0,0,0,0
		c2.9,0,2.9,1.4,5.7,1.4c2.7,0,2.9-1.3,5.3-1.4c0.1,0,0.3,0,0.4,0h0h0c2.9,0,2.9,1.4,5.7,1.4c0,0,0.1,0,0.1,0c0.3,0,0.6,0,0.9-0.1
		c0.2,0,0.3-0.1,0.4-0.1c0.1,0,0.2-0.1,0.4-0.1c1.3-0.4,1.8-1.2,3.9-1.2c2.9,0,2.9,1.4,5.7,1.4c2.9,0,2.9-1.4,5.7-1.4c0,0,0,0,0,0
		c0,5.6-1,11.2-2.5,16.6c0,0,0,0,0,0c-3.5,11.9-9.9,23.3-15.8,33.8c-2.8,5-5.5,9.6-7.7,14.1c-1,2.1-4.1,2.1-5.1,0
		c-0.1-0.3-0.3-0.6-0.4-0.8c1.7,7.3,3,13.8,3,19.3v18.7c0,4.1-2.4,7.6-4.1,8.4l-2,1c-0.6,0.3-1.1,1.6-1.1,3.1c0,1.7,0.6,3.1,1.3,3.1
		h19.9c1.7,0,3.1-1.4,3.1-3.1c0-1.5-1.1-2.8-2.5-3.1l-4.9-1c-4-0.8-6.9-4.3-6.9-8.4V621C474.3,602.2,505.7,572.1,505.7,538.1z
		 M468.5,529.5c-1.6,0-2.9-1.3-2.9-2.9c0-1.6,1.3-2.9,2.9-2.9c1.6,0,2.9,1.3,2.9,2.9C471.4,528.2,470.1,529.5,468.5,529.5z
		 M474.3,509.5c-1.6,0-2.9-1.3-2.9-2.9c0-1.6,1.3-2.9,2.9-2.9c1.6,0,2.9,1.3,2.9,2.9C477.1,508.2,475.8,509.5,474.3,509.5z
		 M488.6,523.8c-1.6,0-2.9-1.3-2.9-2.9s1.3-2.9,2.9-2.9s2.9,1.3,2.9,2.9S490.1,523.8,488.6,523.8z"/>
	<path class="st5" d="M464.2,652.2c0-1.5,0.4-2.8,1.1-3.1l2-1c1.7-0.8,4.1-4.3,4.1-8.4V621c0-5.5-1.2-12-3-19.3c0,0,0,0,0,0
		c0,0,0,0.1,0,0.1c-2.1-4.2-4.6-8.6-7.2-13.3c-5.9-10.4-12.4-21.8-15.8-33.8c0,0,0,0,0,0c-1.6-5.4-2.5-11-2.5-16.6
		c2.8,0,2.9,1.4,5.7,1.4c2.9,0,2.9-1.4,5.7-1.4c0.2,0,0.3,0,0.5,0c0,0,0.1,0,0.1,0c0.1,0,0.2,0,0.4,0c0,0,0,0,0,0
		c0.1,0,0.3,0,0.4,0.1c0,0,0,0,0.1,0c0.1,0,0.2,0.1,0.3,0.1c0,0,0,0,0,0c0.4,0.1,0.8,0.3,1.2,0.5c0-0.2,0-0.5,0-0.7
		c0-17.5,0-48.6,0-48.6h-17.2c-1.6,0-2.9,1.3-2.9,2.9v45.8c0,34,31.5,64.1,31.5,83v18.7c0,4.1-2.9,7.6-6.9,8.4l-4.9,1
		c-1.5,0.3-2.5,1.6-2.5,3.1c0,1.7,1.4,3.1,3.1,3.1h8.2C464.8,655.4,464.2,654,464.2,652.2z M451.4,512.3c1.6,0,2.9,1.3,2.9,2.9
		s-1.3,2.9-2.9,2.9c-1.6,0-2.9-1.3-2.9-2.9S449.8,512.3,451.4,512.3z"/>
	<path class="st6" d="M488.6,555.3c-2,0-2.6-0.7-3.8-1.1c-0.2-0.1-0.5-0.1-0.7-0.2c0,0-0.1,0-0.1,0c-0.3-0.1-0.7-0.1-1.1-0.1
		c-2.8,0-2.9,1.4-5.7,1.4c0,0,0,0,0,0s0,0,0,0c-2.9,0-2.9-1.4-5.7-1.4c-2.7,0-2.9,1.3-5.3,1.4c-0.1,0-0.3,0-0.4,0h0h0
		c-2.9,0-2.9-1.4-5.7-1.4c0,0-0.1,0-0.1,0c-0.3,0-0.6,0-0.9,0.1c-0.2,0-0.3,0.1-0.4,0.1c-0.1,0-0.2,0.1-0.4,0.1c0,0,0,0-0.1,0
		c2.1,17.8,7.1,34,10.3,47.6c0,0,0,0,0,0c0.1,0.3,0.3,0.6,0.4,0.8c1,2.1,4.1,2.1,5.1,0c2.2-4.5,4.8-9.1,7.7-14.1
		c5.9-10.4,12.4-21.8,15.8-33.8c-0.8-0.4-1.5-0.9-3.2-0.9C491.4,553.8,491.4,555.3,488.6,555.3z M471.4,569.6
		c-1.6,0-2.9-1.3-2.9-2.9c0-1.6,1.3-2.9,2.9-2.9s2.9,1.3,2.9,2.9C474.3,568.3,473,569.6,471.4,569.6z M477.1,581
		c-1.6,0-2.9-1.3-2.9-2.9s1.3-2.9,2.9-2.9c1.6,0,2.9,1.3,2.9,2.9S478.7,581,477.1,581z"/>
	<path class="st7" d="M458.1,554.1C458.1,554.1,458.1,554.1,458.1,554.1C458.1,554.1,458.1,554.1,458.1,554.1
		c-1,0.3-1.6,0.9-2.8,1.1c0,0,0,0,0,0c-0.1,0-0.2,0-0.3,0c0,0,0,0,0,0c-0.1,0-0.2,0-0.3,0c0,0,0,0-0.1,0c-0.1,0-0.2,0-0.4,0
		c-2.9,0-2.9-1.4-5.7-1.4c-1.6,0-2.3,0.5-3.2,0.9c3.5,11.9,9.9,23.3,15.8,33.8c2.7,4.7,5.1,9.1,7.2,13.3c0,0,0-0.1,0-0.1
		C465.2,588.1,460.2,571.9,458.1,554.1z"/>
	<circle class="st7" cx="477.1" cy="578.1" r="2.9"/>
	<circle class="st8" cx="488.6" cy="520.9" r="2.9"/>
	<circle class="st4" cx="451.4" cy="515.2" r="2.9"/>
	<circle class="st8" cx="474.3" cy="506.6" r="2.9"/>
	<circle class="st8" cx="468.5" cy="526.7" r="2.9"/>
	<circle class="st7" cx="471.4" cy="566.7" r="2.9"/>
	<path class="st8" d="M454.2,538.1c0.2,0,0.3,0,0.5,0C454.5,538.1,454.4,538.1,454.2,538.1z"/>
	<path class="st8" d="M454.8,538.1c0.1,0,0.2,0,0.4,0C455,538.1,454.9,538.1,454.8,538.1z"/>
	<path class="st8" d="M455.6,538.2c0.1,0,0.2,0.1,0.3,0.1C455.8,538.3,455.7,538.3,455.6,538.2z"/>
	<path class="st8" d="M457.1,538.8c0,5.2,0.4,10.3,1,15.3c0,0,0,0,0,0c0,0,0,0,0.1,0c0.1,0,0.2-0.1,0.4-0.1c0.1,0,0.3-0.1,0.4-0.1
		c0.3,0,0.6-0.1,0.9-0.1c0,0,0.1,0,0.1,0c2.9,0,2.9,1.4,5.7,1.4h0h0c0.2,0,0.3,0,0.4,0c2.4-0.1,2.6-1.4,5.3-1.4
		c2.9,0,2.9,1.4,5.7,1.4c0,0,0,0,0,0s0,0,0,0c2.9,0,2.9-1.4,5.7-1.4c0.4,0,0.8,0,1.1,0.1c0,0,0.1,0,0.1,0c0.3,0.1,0.5,0.1,0.7,0.2
		c1.2,0.4,1.8,1.1,3.8,1.1c2.9,0,2.9-1.4,5.7-1.4c1.6,0,2.3,0.5,3.2,0.9c0,0,0,0,0,0c1.6-5.4,2.5-11,2.5-16.6c0,0,0,0,0,0
		c-2.9,0-2.9,1.4-5.7,1.4c-2.9,0-2.9-1.4-5.7-1.4c-2.1,0-2.7,0.8-3.9,1.2c-0.1,0-0.2,0.1-0.4,0.1c-0.1,0-0.3,0.1-0.4,0.1
		c-0.3,0-0.6,0.1-0.9,0.1c0,0-0.1,0-0.1,0c-2.9,0-2.9-1.4-5.7-1.4h0h0c-0.2,0-0.3,0-0.4,0c-2.4,0.1-2.6,1.4-5.3,1.4
		c-2.9,0-2.9-1.4-5.7-1.4c0,0,0,0,0,0s0,0,0,0c-2.9,0-2.9,1.4-5.7,1.4c-0.4,0-0.8,0-1.1-0.1c0,0-0.1,0-0.1,0
		c-0.3-0.1-0.5-0.1-0.7-0.2C457.7,539.1,457.4,539,457.1,538.8c-0.4-0.2-0.7-0.4-1.2-0.5C456.4,538.5,456.7,538.6,457.1,538.8z"/>
	<path class="st8" d="M455.2,538.2c0.1,0,0.3,0,0.4,0.1C455.4,538.2,455.3,538.2,455.2,538.2z"/>
	<path class="st8" d="M455,555.2C455,555.2,455,555.2,455,555.2C455,555.2,455,555.2,455,555.2z"/>
	<path class="st8" d="M454.7,555.2C454.7,555.2,454.7,555.2,454.7,555.2C454.7,555.2,454.7,555.2,454.7,555.2z"/>
	<path class="st8" d="M455.3,555.2C455.3,555.2,455.3,555.2,455.3,555.2C455.3,555.2,455.3,555.2,455.3,555.2z"/>
	<path class="st4" d="M454.3,555.3c0.1,0,0.3,0,0.4,0c0,0,0,0,0.1,0c0.1,0,0.2,0,0.3,0c0,0,0,0,0,0c0.1,0,0.2,0,0.3,0c0,0,0,0,0,0
		c1.3-0.2,1.8-0.7,2.8-1.1c0,0,0,0,0,0c-0.6-5-1-10.1-1-15.3c-0.4-0.2-0.7-0.4-1.2-0.5c0,0,0,0,0,0c-0.1,0-0.2-0.1-0.3-0.1
		c0,0,0,0-0.1,0c-0.1,0-0.2,0-0.4-0.1c0,0,0,0,0,0c-0.1,0-0.2,0-0.4,0c0,0-0.1,0-0.1,0c-0.1,0-0.3,0-0.5,0c-2.9,0-2.9,1.4-5.7,1.4
		c-2.9,0-2.9-1.4-5.7-1.4c0,5.6,1,11.2,2.5,16.6c0,0,0,0,0,0c0.8-0.4,1.5-0.9,3.2-0.9C451.4,553.8,451.4,555.3,454.3,555.3z"/>
</g>
<g>
	<path class="st20" d="M488,921.7c-2.7,1.1-5.3,2.5-7.8,4c24.8,17.2,36.7,49,27.3,79.3c-2.4,7.9-6.1,15-10.8,21.3
		c2.9,0.7,5.8,1.1,8.7,1.3c4.1-6.1,7.3-12.9,9.6-20.3C525,975.1,513.2,941.2,488,921.7z"/>
	<path class="st21" d="M476.3,1035.3c-15.5,11-35.7,14.9-55.2,8.9c-33.2-10.3-51.9-45.7-41.6-78.9c10.2-33.1,45.4-51.7,78.4-41.7
		c2.1-2.2,4.3-4.2,6.6-6.1c-1.3-0.5-2.5-0.9-3.8-1.3c-37.4-11.6-77.2,9.4-88.8,46.8c-11.6,37.4,9.4,77.2,46.8,88.8
		c23.5,7.3,48,1.7,65.8-12.8C481.7,1037.9,478.9,1036.7,476.3,1035.3z"/>
	<polygon class="st22" points="523.8,872.4 505,866.6 515.9,892 525.2,894.9 	"/>
	<polygon class="st23" points="540,899.5 549.3,902.4 572.7,887.6 553.9,881.8 	"/>
	<polygon class="st24" points="538.8,877.1 553.9,881.8 544.3,859.6 523.8,872.4 	"/>
	<polygon class="st25" points="538.8,877.1 523.8,872.4 525.2,894.9 532.6,897.2 540,899.5 553.9,881.8 	"/>
	<polygon class="st25" points="525.6,853.8 505,866.6 523.8,872.4 	"/>
	<polygon class="st26" points="572.7,887.6 563,865.4 553.9,881.8 	"/>
	<polygon class="st23" points="563,865.4 544.3,859.6 553.9,881.8 	"/>
	<polygon class="st23" points="544.3,859.6 525.6,853.8 523.8,872.4 	"/>
	<path class="st20" d="M577.1,993.5c9.4-30.2-2.6-62.1-27.3-79.3l5.4-10l-5.9-1.8l-9.3-2.9l-7.4-2.3l-4.7,15.1
		c33.2,10.3,51.9,45.7,41.6,78.9c-10.3,33.2-45.7,51.9-78.9,41.6c-33.2-10.3-51.9-45.7-41.6-78.9c8.2-26.6,32.6-43.9,59-44.4
		l0.8-7.9c-13.1,0.1-25.8,3.8-36.7,10.6c-2.9-1.3-6-2.5-9.1-3.4c-41.5-12.9-85.8,10.5-98.6,52c-12.9,41.5,10.5,85.8,52,98.6
		c27.9,8.6,57,0.9,77-17.6C529.3,1049.9,566,1029.2,577.1,993.5z M418.7,1051.8c-37.4-11.6-58.4-51.3-46.8-88.8
		c11.6-37.4,51.3-58.4,88.8-46.8c1.3,0.4,2.6,0.8,3.8,1.3c-2.3,1.9-4.5,3.9-6.6,6.1c-7.3,7.7-13,17.1-16.4,27.9
		c-10.3,33.1,5.1,68.2,34.8,83.8c2.6,1.4,5.4,2.6,8.2,3.7C466.7,1053.5,442.3,1059.1,418.7,1051.8z"/>
	<path class="st21" d="M449,953.9c-10.3,33.2,8.4,68.6,41.6,78.9c33.2,10.3,68.6-8.4,78.9-41.6c10.3-33.2-8.4-68.6-41.6-78.9
		l4.7-15.1l-7.4-2.3l-9.3-2.9l-5.9-1.8l-1.2,11.3l-0.8,7.9C481.6,910,457.3,927.3,449,953.9z M456.6,956.2
		c3.2-10.3,9.1-19,16.8-25.5c23.5,14.9,35.2,44.2,26.6,72c-2.5,7.9-6.3,15-11.3,21.1C462.3,1013.1,448,983.8,456.6,956.2z
		 M562,988.8c-7.7,24.9-31.6,40.5-56.6,38.7c-2.9-0.2-5.8-0.6-8.7-1.3c4.6-6.3,8.3-13.4,10.8-21.3c9.4-30.3-2.6-62.1-27.3-79.3
		c2.5-1.5,5.1-2.9,7.8-4c11.5-4.8,24.8-5.8,37.6-1.8C554.7,928.8,571,959.8,562,988.8z"/>
</g>
<g>
	<path class="st27" d="M476.6,1323c-55.6,0-100.7,45.1-100.7,100.7s45.1,100.7,100.7,100.7s100.7-45.1,100.7-100.7
		S532.2,1323,476.6,1323z M476.6,1490.8c-37,0-67.1-30.1-67.1-67.1s30.1-67.1,67.1-67.1s67.1,30.1,67.1,67.1
		S513.6,1490.8,476.6,1490.8z"/>
	<path class="st4" d="M476.6,1366.1c-31.7,0-57.5,25.8-57.5,57.5s25.8,57.5,57.5,57.5s57.5-25.8,57.5-57.5
		S508.3,1366.1,476.6,1366.1z"/>
	<path class="st28" d="M476.6,1356.6c-37,0-67.1,30.1-67.1,67.1s30.1,67.1,67.1,67.1s67.1-30.1,67.1-67.1S513.6,1356.6,476.6,1356.6
		z M476.6,1481.2c-31.7,0-57.5-25.8-57.5-57.5s25.8-57.5,57.5-57.5s57.5,25.8,57.5,57.5S508.3,1481.2,476.6,1481.2z"/>
	<path class="st29" d="M363.4,1337.4c-1.6,0-2.9,1.3-2.9,3v41.5c0,1.6-1.3,3-2.9,3s-2.9-1.3-2.9-3v-41.5c0-1.6-1.3-3-2.9-3
		c-1.6,0-2.9,1.3-2.9,3v41.5c0,1.6-1.3,3-2.9,3s-2.9-1.3-2.9-3v-41.5c0-1.6-1.3-3-2.9-3s-2.9,1.3-2.9,3v47.5
		c0,5.6,3.7,10.2,8.7,11.5l-3.6,101c-0.2,5.2,4,9.6,9.2,9.6c5.2,0,9.4-4.3,9.2-9.6l-3.6-101c5-1.3,8.7-5.9,8.7-11.5v-47.5
		C366.3,1338.7,365,1337.4,363.4,1337.4z"/>
	<path class="st29" d="M605.6,1337.4c-2.5,0-4.7,1.9-5.1,4.4l-12.4,78.7c-0.7,4.6,2,9.1,6.4,10.6l6.7,2.2l-8.3,66.6
		c-0.7,5.4,3.5,10.1,8.9,10.1l0,0c5,0,9-4,9-9v-158.4C610.8,1339.7,608.5,1337.4,605.6,1337.4z"/>
</g>
<circle class="st1" cx="474.5" cy="269.2" r="6.5"/>
<circle class="st1" cx="474.5" cy="300.8" r="6.5"/>
<circle class="st1" cx="474.5" cy="332.5" r="6.5"/>
<circle class="st1" cx="474.5" cy="364.2" r="6.5"/>
<circle class="st1" cx="474.5" cy="395.8" r="6.5"/>
<circle class="st1" cx="474.5" cy="427.5" r="6.5"/>
<circle class="st1" cx="474.5" cy="682.2" r="6.5"/>
<circle class="st1" cx="474.5" cy="713.8" r="6.5"/>
<circle class="st1" cx="474.5" cy="745.5" r="6.5"/>
<circle class="st1" cx="474.5" cy="777.2" r="6.5"/>
<circle class="st1" cx="474.5" cy="808.8" r="6.5"/>
<circle class="st1" cx="474.5" cy="840.5" r="6.5"/>
<circle class="st1" cx="474.5" cy="1102.2" r="6.5"/>
<circle class="st1" cx="474.5" cy="1133.8" r="6.5"/>
<circle class="st1" cx="474.5" cy="1165.5" r="6.5"/>
<circle class="st1" cx="474.5" cy="1197.2" r="6.5"/>
<circle class="st1" cx="474.5" cy="1228.8" r="6.5"/>
<circle class="st1" cx="474.5" cy="1260.5" r="6.5"/>
<rect x="0" y="526.9" class="st0" width="337" height="63.7"/>
<text transform="matrix(1 0 0 1 0 584.4547)" class="st1 st2 st3">15:00</text>
<rect x="0" y="957.1" class="st0" width="337" height="61.7"/>
<text transform="matrix(1 0 0 1 0 1014.6829)" class="st1 st2 st3">16:00</text>
<rect x="0" y="1399.6" class="st0" width="337" height="64.7"/>
<text transform="matrix(1 0 0 1 0 1457.1605)" class="st1 st2 st3">17:00</text>
<text transform="matrix(1 0 0 1 669.1914 179.4836)" class="st13 st30 st31">Выкуп невесты</text>
<text transform="matrix(0.9626 0 0 1 672.1914 213.1675)" class="st13 st30 st32">д.Гатовичи</text>
<circle class="st1" cx="474.5" cy="457.5" r="6.5"/>
<circle class="st1" cx="474.5" cy="870.5" r="6.5"/>
<circle class="st1" cx="474.5" cy="1290.5" r="6.5"/>
<text transform="matrix(1 0 0 1 669.1914 576.1127)" class="st13 st30 st31">Фуршет</text>
<text transform="matrix(0.9626 0 0 1 672.1914 612.1675)" class="st13 st30 st32">д. Ширки, усадьба гармония</text>
<text transform="matrix(1 0 0 1 669.1914 969.3534)"><tspan x="0" y="0" class="st13 st30 st31">регистрация </tspan><tspan x="0" y="72" class="st13 st30 st31">брака</tspan></text>
<text transform="matrix(1 0 0 1 669.1914 1416.8759)"><tspan x="0" y="0" class="st13 st30 st31">Праздничный</tspan><tspan x="0" y="72" class="st13 st30 st31">банкет</tspan></text>
</svg>
