<?xml version="1.0" encoding="utf-8"?>
<!-- Generator: Adobe Illustrator 24.2.3, SVG Export Plug-In . SVG Version: 6.00 Build 0)  -->
<svg version="1.1" xmlns="http://www.w3.org/2000/svg" xmlns:xlink="http://www.w3.org/1999/xlink" x="0px" y="0px"
	 viewBox="0 0 275 1150" style="enable-background:new 0 0 275 1150;" xml:space="preserve">
<style type="text/css">
	.st0{fill:#FFFFFF;stroke:#000000;stroke-miterlimit:10;}
	.st1{display:none;fill:#6D593E;enable-background:new    ;}
	.st2{display:none;}
	.st3{display:inline;fill:#966947;}
	.st4{fill:none;stroke:#000000;stroke-miterlimit:10;}
	.st5{display:inline;}
	.st6{fill:#FFFFFF;stroke:#000000;stroke-width:0.4;stroke-miterlimit:10;}
</style>
<g id="Layer_1">
	<rect x="51.5" y="18" class="st0" width="182.5" height="1119.5"/>
</g>
<g id="Layer_6">
	<g id="chair_44_">
		<path class="st0" d="M235.7,18.8c0,0,5-0.9,7.1,1.7s9.9,12.5,1.4,32.4c-4.3,5.6-10.7,2.2-10.7,2.2L235.7,18.8z"/>
		<polygon class="st0" points="247.8,17.5 242.8,20.5 244.2,22.3 249.9,20.5 		"/>
		<polygon class="st0" points="247.2,28.9 254.2,27.4 254.9,29.6 247.6,30.7 		"/>
		<polygon class="st0" points="247.8,36.9 256.3,36 255.6,38.6 247.8,38.6 		"/>
		<polygon class="st0" points="247,44.6 254.9,45.1 254.2,47.7 245.7,46 		"/>
		<polygon class="st0" points="245,50.9 249.9,53.3 247.8,55.9 243.5,52 		"/>
		<path class="st0" d="M244.2,11.4l-2.1-1.3c0,0-2.8,0-2.1,1.3c0.7,1.3,7.1,6,7.1,6s5.7,4.3,7.1,9.9s6.4,18.1-11.4,32.4
			c-2.8,1.7-2.8,3.5-2.8,3.5s0.7,2.6,5,0.4c4.3-2.2,16.3-16,17-25C262,33,257.7,19.2,244.2,11.4z"/>
	</g>
	<g id="chair_43_">
		<path class="st4" d="M235.7,75.2c0,0,5-0.9,7.1,1.7s9.9,12.5,1.4,32.4c-4.3,5.6-10.7,2.2-10.7,2.2L235.7,75.2z"/>
		<polygon class="st4" points="247.8,73.9 242.8,76.9 244.2,78.7 249.9,76.9 		"/>
		<polygon class="st4" points="247.2,85.3 254.2,83.8 254.9,85.9 247.6,87.1 		"/>
		<polygon class="st4" points="247.8,93.3 256.3,92.4 255.6,95 247.8,95 		"/>
		<polygon class="st4" points="247,101 254.9,101.5 254.2,104.1 245.7,102.3 		"/>
		<polygon class="st4" points="245,107.3 249.9,109.7 247.8,112.3 243.5,108.4 		"/>
		<path class="st4" d="M244.2,67.8l-2.1-1.3c0,0-2.8,0-2.1,1.3c0.7,1.3,7.1,6,7.1,6s5.7,4.3,7.1,9.9c1.4,5.6,6.4,18.1-11.4,32.4
			c-2.8,1.7-2.8,3.5-2.8,3.5s0.7,2.6,5,0.4s16.3-16,17-25C262,89.4,257.7,75.6,244.2,67.8z"/>
	</g>
	<g id="chair_42_">
		<path class="st0" d="M235.7,131.5c0,0,5-0.9,7.1,1.7c2.1,2.6,9.9,12.5,1.4,32.4c-4.3,5.6-10.7,2.2-10.7,2.2L235.7,131.5z"/>
		<polygon class="st0" points="247.8,130.2 242.8,133.3 244.2,135 249.9,133.3 		"/>
		<polygon class="st0" points="247.2,141.6 254.2,140.2 254.9,142.3 247.6,143.5 		"/>
		<polygon class="st0" points="247.8,149.7 256.3,148.8 255.6,151.4 247.8,151.4 		"/>
		<polygon class="st0" points="247,157.4 254.9,157.8 254.2,160.4 245.7,158.7 		"/>
		<polygon class="st0" points="245,163.6 249.9,166 247.8,168.6 243.5,164.8 		"/>
		<path class="st0" d="M244.2,124.2l-2.1-1.3c0,0-2.8,0-2.1,1.3c0.7,1.3,7.1,6,7.1,6s5.7,4.3,7.1,9.9c1.4,5.6,6.4,18.1-11.4,32.4
			c-2.8,1.7-2.8,3.5-2.8,3.5s0.7,2.6,5,0.4s16.3-16,17-25C262,145.8,257.7,132,244.2,124.2z"/>
	</g>
	<g id="chair_41_">
		<path class="st0" d="M235.7,187.9c0,0,5-0.9,7.1,1.7s9.9,12.5,1.4,32.4c-4.3,5.6-10.7,2.2-10.7,2.2L235.7,187.9z"/>
		<polygon class="st0" points="247.8,186.6 242.8,189.6 244.2,191.4 249.9,189.6 		"/>
		<polygon class="st0" points="247.2,198 254.2,196.5 254.9,198.7 247.6,199.9 		"/>
		<polygon class="st0" points="247.8,206 256.3,205.2 255.6,207.8 247.8,207.8 		"/>
		<polygon class="st0" points="247,213.8 254.9,214.2 254.2,216.8 245.7,215.1 		"/>
		<polygon class="st0" points="245,220 249.9,222.4 247.8,225 243.5,221.1 		"/>
		<path class="st0" d="M244.2,180.6l-2.1-1.3c0,0-2.8,0-2.1,1.3c0.7,1.3,7.1,6,7.1,6s5.7,4.3,7.1,9.9s6.4,18.1-11.4,32.4
			c-2.8,1.7-2.8,3.5-2.8,3.5s0.7,2.6,5,0.4c4.3-2.2,16.3-16,17-25C262,202.1,257.7,188.3,244.2,180.6z"/>
	</g>
	<g id="chair_40_">
		<path class="st0" d="M235.7,244.3c0,0,5-0.9,7.1,1.7s9.9,12.5,1.4,32.4c-4.3,5.6-10.7,2.2-10.7,2.2L235.7,244.3z"/>
		<polygon class="st0" points="247.8,243 242.8,246 244.2,247.8 249.9,246 		"/>
		<polygon class="st0" points="247.2,254.4 254.2,252.9 254.9,255.1 247.6,256.2 		"/>
		<polygon class="st0" points="247.8,262.4 256.3,261.5 255.6,264.1 247.8,264.1 		"/>
		<polygon class="st0" points="247,270.1 254.9,270.6 254.2,273.2 245.7,271.5 		"/>
		<polygon class="st0" points="245,276.4 249.9,278.8 247.8,281.4 243.5,277.5 		"/>
		<path class="st0" d="M244.2,237l-2.1-1.3c0,0-2.8,0-2.1,1.3c0.7,1.3,7.1,6,7.1,6s5.7,4.3,7.1,9.9c1.4,5.6,6.4,18.1-11.4,32.4
			c-2.8,1.7-2.8,3.5-2.8,3.5s0.7,2.6,5,0.4c4.3-2.2,16.3-16,17-25C262,258.5,257.7,244.7,244.2,237z"/>
	</g>
	<g id="chair_39_">
		<path class="st0" d="M235.7,300.7c0,0,5-0.9,7.1,1.7s9.9,12.5,1.4,32.4c-4.3,5.6-10.7,2.2-10.7,2.2L235.7,300.7z"/>
		<polygon class="st0" points="247.8,299.4 242.8,302.4 244.2,304.2 249.9,302.4 		"/>
		<polygon class="st0" points="247.2,310.8 254.2,309.3 254.9,311.5 247.6,312.6 		"/>
		<polygon class="st0" points="247.8,318.8 256.3,317.9 255.6,320.5 247.8,320.5 		"/>
		<polygon class="st0" points="247,326.5 254.9,327 254.2,329.6 245.7,327.8 		"/>
		<polygon class="st0" points="245,332.8 249.9,335.2 247.8,337.8 243.5,333.9 		"/>
		<path class="st0" d="M244.2,293.3l-2.1-1.3c0,0-2.8,0-2.1,1.3c0.7,1.3,7.1,6,7.1,6s5.7,4.3,7.1,9.9c1.4,5.6,6.4,18.1-11.4,32.4
			c-2.8,1.7-2.8,3.5-2.8,3.5s0.7,2.6,5,0.4c4.3-2.2,16.3-16,17-25C262,314.9,257.7,301.1,244.2,293.3z"/>
	</g>
	<g id="chair_38_">
		<path class="st0" d="M235.7,357c0,0,5-0.9,7.1,1.7c2.1,2.6,9.9,12.5,1.4,32.4c-4.3,5.6-10.7,2.2-10.7,2.2L235.7,357z"/>
		<polygon class="st0" points="247.8,355.8 242.8,358.8 244.2,360.6 249.9,358.8 		"/>
		<polygon class="st0" points="247.2,367.2 254.2,365.7 254.9,367.8 247.6,369 		"/>
		<polygon class="st0" points="247.8,375.2 256.3,374.3 255.6,376.9 247.8,376.9 		"/>
		<polygon class="st0" points="247,382.9 254.9,383.4 254.2,386 245.7,384.2 		"/>
		<polygon class="st0" points="245,389.2 249.9,391.6 247.8,394.1 243.5,390.3 		"/>
		<path class="st0" d="M244.2,349.7l-2.1-1.3c0,0-2.8,0-2.1,1.3c0.7,1.3,7.1,6,7.1,6s5.7,4.3,7.1,9.9s6.4,18.1-11.4,32.4
			c-2.8,1.7-2.8,3.5-2.8,3.5s0.7,2.6,5,0.4c4.3-2.2,16.3-16,17-25C262,371.3,257.7,357.5,244.2,349.7z"/>
	</g>
	<g id="chair_37_">
		<path class="st0" d="M235.7,413.4c0,0,5-0.9,7.1,1.7s9.9,12.5,1.4,32.4c-4.3,5.6-10.7,2.2-10.7,2.2L235.7,413.4z"/>
		<polygon class="st0" points="247.8,412.1 242.8,415.2 244.2,416.9 249.9,415.2 		"/>
		<polygon class="st0" points="247.2,423.5 254.2,422.1 254.9,424.2 247.6,425.4 		"/>
		<polygon class="st0" points="247.8,431.5 256.3,430.7 255.6,433.3 247.8,433.3 		"/>
		<polygon class="st0" points="247,439.3 254.9,439.7 254.2,442.3 245.7,440.6 		"/>
		<polygon class="st0" points="245,445.5 249.9,447.9 247.8,450.5 243.5,446.6 		"/>
		<path class="st0" d="M244.2,406.1l-2.1-1.3c0,0-2.8,0-2.1,1.3c0.7,1.3,7.1,6,7.1,6s5.7,4.3,7.1,9.9c1.4,5.6,6.4,18.1-11.4,32.4
			c-2.8,1.7-2.8,3.5-2.8,3.5s0.7,2.6,5,0.4c4.3-2.2,16.3-16,17-25C262,427.7,257.7,413.9,244.2,406.1z"/>
	</g>
	<g id="chair_36_">
		<path class="st0" d="M235.7,469.8c0,0,5-0.9,7.1,1.7s9.9,12.5,1.4,32.4c-4.3,5.6-10.7,2.2-10.7,2.2L235.7,469.8z"/>
		<polygon class="st0" points="247.8,468.5 242.8,471.5 244.2,473.3 249.9,471.5 		"/>
		<polygon class="st0" points="247.2,479.9 254.2,478.4 254.9,480.6 247.6,481.8 		"/>
		<polygon class="st0" points="247.8,487.9 256.3,487.1 255.6,489.6 247.8,489.6 		"/>
		<polygon class="st0" points="247,495.6 254.9,496.1 254.2,498.7 245.7,497 		"/>
		<polygon class="st0" points="245,501.9 249.9,504.3 247.8,506.9 243.5,503 		"/>
		<path class="st0" d="M244.2,462.5l-2.1-1.3c0,0-2.8,0-2.1,1.3c0.7,1.3,7.1,6,7.1,6s5.7,4.3,7.1,9.9c1.4,5.6,6.4,18.1-11.4,32.4
			c-2.8,1.7-2.8,3.5-2.8,3.5s0.7,2.6,5,0.4c4.3-2.2,16.3-16,17-25C262,484,257.7,470.2,244.2,462.5z"/>
	</g>
	<g id="chair_35_">
		<path class="st0" d="M235.7,526.2c0,0,5-0.9,7.1,1.7s9.9,12.5,1.4,32.4c-4.3,5.6-10.7,2.2-10.7,2.2L235.7,526.2z"/>
		<polygon class="st0" points="247.8,524.9 242.8,527.9 244.2,529.7 249.9,527.9 		"/>
		<polygon class="st0" points="247.2,536.3 254.2,534.8 254.9,537 247.6,538.1 		"/>
		<polygon class="st0" points="247.8,544.3 256.3,543.4 255.6,546 247.8,546 		"/>
		<polygon class="st0" points="247,552 254.9,552.5 254.2,555.1 245.7,553.4 		"/>
		<polygon class="st0" points="245,558.3 249.9,560.7 247.8,563.3 243.5,559.4 		"/>
		<path class="st0" d="M244.2,518.8l-2.1-1.3c0,0-2.8,0-2.1,1.3c0.7,1.3,7.1,6,7.1,6s5.7,4.3,7.1,9.9s6.4,18.1-11.4,32.4
			c-2.8,1.7-2.8,3.5-2.8,3.5s0.7,2.6,5,0.4s16.3-16,17-25C262,540.4,257.7,526.6,244.2,518.8z"/>
	</g>
	<g id="chair_34_">
		<path class="st0" d="M235.7,584.8c0,0,5-0.9,7.1,1.7s9.9,12.5,1.4,32.4c-4.3,5.6-10.7,2.2-10.7,2.2L235.7,584.8z"/>
		<polygon class="st0" points="247.8,583.5 242.8,586.5 244.2,588.3 249.9,586.5 		"/>
		<polygon class="st0" points="247.2,594.9 254.2,593.4 254.9,595.6 247.6,596.7 		"/>
		<polygon class="st0" points="247.8,602.9 256.3,602 255.6,604.6 247.8,604.6 		"/>
		<polygon class="st0" points="247,610.6 254.9,611.1 254.2,613.7 245.7,612 		"/>
		<polygon class="st0" points="245,616.9 249.9,619.3 247.8,621.9 243.5,618 		"/>
		<path class="st0" d="M244.2,577.4l-2.1-1.3c0,0-2.8,0-2.1,1.3c0.7,1.3,7.1,6,7.1,6s5.7,4.3,7.1,9.9c1.4,5.6,6.4,18.1-11.4,32.4
			c-2.8,1.7-2.8,3.5-2.8,3.5s0.7,2.6,5,0.4s16.3-16,17-25C262,599,257.7,585.2,244.2,577.4z"/>
	</g>
	<g id="chair_33_">
		<path class="st4" d="M235.7,641.2c0,0,5-0.9,7.1,1.7s9.9,12.5,1.4,32.4c-4.3,5.6-10.7,2.2-10.7,2.2L235.7,641.2z"/>
		<polygon class="st4" points="247.8,639.9 242.8,642.9 244.2,644.7 249.9,642.9 		"/>
		<polygon class="st4" points="247.2,651.3 254.2,649.8 254.9,651.9 247.6,653.1 		"/>
		<polygon class="st4" points="247.8,659.3 256.3,658.4 255.6,661 247.8,661 		"/>
		<polygon class="st4" points="247,667 254.9,667.5 254.2,670.1 245.7,668.3 		"/>
		<polygon class="st4" points="245,673.3 249.9,675.7 247.8,678.3 243.5,674.4 		"/>
		<path class="st4" d="M244.2,633.8l-2.1-1.3c0,0-2.8,0-2.1,1.3c0.7,1.3,7.1,6,7.1,6s5.7,4.3,7.1,9.9c1.4,5.6,6.4,18.1-11.4,32.4
			c-2.8,1.7-2.8,3.5-2.8,3.5s0.7,2.6,5,0.4c4.3-2.2,16.3-16,17-25C262,655.4,257.7,641.6,244.2,633.8z"/>
	</g>
	<g id="chair_32_">
		<path class="st0" d="M235.7,697.5c0,0,5-0.9,7.1,1.7s9.9,12.5,1.4,32.4c-4.3,5.6-10.7,2.2-10.7,2.2L235.7,697.5z"/>
		<polygon class="st0" points="247.8,696.2 242.8,699.3 244.2,701 249.9,699.3 		"/>
		<polygon class="st0" points="247.2,707.6 254.2,706.2 254.9,708.3 247.6,709.5 		"/>
		<polygon class="st0" points="247.8,715.7 256.3,714.8 255.6,717.4 247.8,717.4 		"/>
		<polygon class="st0" points="247,723.4 254.9,723.8 254.2,726.4 245.7,724.7 		"/>
		<polygon class="st0" points="245,729.6 249.9,732 247.8,734.6 243.5,730.8 		"/>
		<path class="st0" d="M244.2,690.2l-2.1-1.3c0,0-2.8,0-2.1,1.3c0.7,1.3,7.1,6,7.1,6s5.7,4.3,7.1,9.9s6.4,18.1-11.4,32.4
			c-2.8,1.7-2.8,3.5-2.8,3.5s0.7,2.6,5,0.4s16.3-16,17-25C262,711.8,257.7,698,244.2,690.2z"/>
	</g>
	<g id="chair_31_">
		<path class="st0" d="M235.7,753.9c0,0,5-0.9,7.1,1.7s9.9,12.5,1.4,32.4c-4.3,5.6-10.7,2.2-10.7,2.2L235.7,753.9z"/>
		<polygon class="st0" points="247.8,752.6 242.8,755.6 244.2,757.4 249.9,755.6 		"/>
		<polygon class="st0" points="247.2,764 254.2,762.5 254.9,764.7 247.6,765.9 		"/>
		<polygon class="st0" points="247.8,772 256.3,771.2 255.6,773.8 247.8,773.8 		"/>
		<polygon class="st0" points="247,779.8 254.9,780.2 254.2,782.8 245.7,781.1 		"/>
		<polygon class="st0" points="245,786 249.9,788.4 247.8,791 243.5,787.1 		"/>
		<path class="st0" d="M244.2,746.6l-2.1-1.3c0,0-2.8,0-2.1,1.3c0.7,1.3,7.1,6,7.1,6s5.7,4.3,7.1,9.9s6.4,18.1-11.4,32.4
			c-2.8,1.7-2.8,3.5-2.8,3.5s0.7,2.6,5,0.4s16.3-16,17-25C262,768.1,257.7,754.3,244.2,746.6z"/>
	</g>
	<g id="chair_30_">
		<path class="st0" d="M235.7,810.3c0,0,5-0.9,7.1,1.7s9.9,12.5,1.4,32.4c-4.3,5.6-10.7,2.2-10.7,2.2L235.7,810.3z"/>
		<polygon class="st0" points="247.8,809 242.8,812 244.2,813.8 249.9,812 		"/>
		<polygon class="st0" points="247.2,820.4 254.2,818.9 254.9,821.1 247.6,822.2 		"/>
		<polygon class="st0" points="247.8,828.4 256.3,827.5 255.6,830.1 247.8,830.1 		"/>
		<polygon class="st0" points="247,836.1 254.9,836.6 254.2,839.2 245.7,837.5 		"/>
		<polygon class="st0" points="245,842.4 249.9,844.8 247.8,847.4 243.5,843.5 		"/>
		<path class="st0" d="M244.2,803l-2.1-1.3c0,0-2.8,0-2.1,1.3c0.7,1.3,7.1,6,7.1,6s5.7,4.3,7.1,9.9c1.4,5.6,6.4,18.1-11.4,32.4
			c-2.8,1.7-2.8,3.5-2.8,3.5s0.7,2.6,5,0.4s16.3-16,17-25C262,824.5,257.7,810.7,244.2,803z"/>
	</g>
	<g id="chair_29_">
		<path class="st0" d="M235.7,866.7c0,0,5-0.9,7.1,1.7s9.9,12.5,1.4,32.4c-4.3,5.6-10.7,2.2-10.7,2.2L235.7,866.7z"/>
		<polygon class="st0" points="247.8,865.4 242.8,868.4 244.2,870.2 249.9,868.4 		"/>
		<polygon class="st0" points="247.2,876.8 254.2,875.3 254.9,877.5 247.6,878.6 		"/>
		<polygon class="st0" points="247.8,884.8 256.3,883.9 255.6,886.5 247.8,886.5 		"/>
		<polygon class="st0" points="247,892.5 254.9,893 254.2,895.6 245.7,893.8 		"/>
		<polygon class="st0" points="245,898.8 249.9,901.2 247.8,903.8 243.5,899.9 		"/>
		<path class="st0" d="M244.2,859.3l-2.1-1.3c0,0-2.8,0-2.1,1.3c0.7,1.3,7.1,6,7.1,6s5.7,4.3,7.1,9.9s6.4,18.1-11.4,32.4
			c-2.8,1.7-2.8,3.5-2.8,3.5s0.7,2.6,5,0.4c4.3-2.2,16.3-16,17-25C262,880.9,257.7,867.1,244.2,859.3z"/>
	</g>
	<g id="chair_28_">
		<path class="st0" d="M235.7,923c0,0,5-0.9,7.1,1.7s9.9,12.5,1.4,32.4c-4.3,5.6-10.7,2.2-10.7,2.2L235.7,923z"/>
		<polygon class="st0" points="247.8,921.8 242.8,924.8 244.2,926.6 249.9,924.8 		"/>
		<polygon class="st0" points="247.2,933.2 254.2,931.7 254.9,933.8 247.6,935 		"/>
		<polygon class="st0" points="247.8,941.2 256.3,940.3 255.6,942.9 247.8,942.9 		"/>
		<polygon class="st0" points="247,948.9 254.9,949.4 254.2,952 245.7,950.2 		"/>
		<polygon class="st0" points="245,955.2 249.9,957.6 247.8,960.1 243.5,956.3 		"/>
		<path class="st0" d="M244.2,915.7l-2.1-1.3c0,0-2.8,0-2.1,1.3c0.7,1.3,7.1,6,7.1,6s5.7,4.3,7.1,9.9s6.4,18.1-11.4,32.4
			c-2.8,1.7-2.8,3.5-2.8,3.5s0.7,2.6,5,0.4s16.3-16,17-25C262,937.3,257.7,923.5,244.2,915.7z"/>
	</g>
	<g id="chair_27_">
		<path class="st0" d="M235.7,979.4c0,0,5-0.9,7.1,1.7s9.9,12.5,1.4,32.4c-4.3,5.6-10.7,2.2-10.7,2.2L235.7,979.4z"/>
		<polygon class="st0" points="247.8,978.1 242.8,981.2 244.2,982.9 249.9,981.2 		"/>
		<polygon class="st0" points="247.2,989.5 254.2,988.1 254.9,990.2 247.6,991.4 		"/>
		<polygon class="st0" points="247.8,997.5 256.3,996.7 255.6,999.3 247.8,999.3 		"/>
		<polygon class="st0" points="247,1005.3 254.9,1005.7 254.2,1008.3 245.7,1006.6 		"/>
		<polygon class="st0" points="245,1011.5 249.9,1013.9 247.8,1016.5 243.5,1012.6 		"/>
		<path class="st0" d="M244.2,972.1l-2.1-1.3c0,0-2.8,0-2.1,1.3c0.7,1.3,7.1,6,7.1,6s5.7,4.3,7.1,9.9c1.4,5.6,6.4,18.1-11.4,32.4
			c-2.8,1.7-2.8,3.5-2.8,3.5s0.7,2.6,5,0.4c4.3-2.2,16.3-16,17-25C262,993.7,257.7,979.9,244.2,972.1z"/>
	</g>
	<g id="chair_26_">
		<path class="st0" d="M235.7,1035.8c0,0,5-0.9,7.1,1.7c2.1,2.6,9.9,12.5,1.4,32.4c-4.3,5.6-10.7,2.2-10.7,2.2L235.7,1035.8z"/>
		<polygon class="st0" points="247.8,1034.5 242.8,1037.5 244.2,1039.3 249.9,1037.5 		"/>
		<polygon class="st0" points="247.2,1045.9 254.2,1044.4 254.9,1046.6 247.6,1047.8 		"/>
		<polygon class="st0" points="247.8,1053.9 256.3,1053.1 255.6,1055.6 247.8,1055.6 		"/>
		<polygon class="st0" points="247,1061.6 254.9,1062.1 254.2,1064.7 245.7,1063 		"/>
		<polygon class="st0" points="245,1067.9 249.9,1070.3 247.8,1072.9 243.5,1069 		"/>
		<path class="st0" d="M244.2,1028.5l-2.1-1.3c0,0-2.8,0-2.1,1.3c0.7,1.3,7.1,6,7.1,6s5.7,4.3,7.1,9.9s6.4,18.1-11.4,32.4
			c-2.8,1.7-2.8,3.5-2.8,3.5s0.7,2.6,5,0.4c4.3-2.2,16.3-16,17-25C262,1050,257.7,1036.2,244.2,1028.5z"/>
	</g>
	<g id="chair_1_">
		<path class="st0" d="M235.7,1092.2c0,0,5-0.9,7.1,1.7c2.1,2.6,9.9,12.5,1.4,32.4c-4.3,5.6-10.7,2.2-10.7,2.2L235.7,1092.2z"/>
		<polygon class="st0" points="247.8,1090.9 242.8,1093.9 244.2,1095.7 249.9,1093.9 		"/>
		<polygon class="st0" points="247.2,1102.3 254.2,1100.8 254.9,1103 247.6,1104.1 		"/>
		<polygon class="st0" points="247.8,1110.3 256.3,1109.4 255.6,1112 247.8,1112 		"/>
		<polygon class="st0" points="247,1118 254.9,1118.5 254.2,1121.1 245.7,1119.4 		"/>
		<polygon class="st0" points="245,1124.3 249.9,1126.7 247.8,1129.3 243.5,1125.4 		"/>
		<path class="st0" d="M244.2,1084.8l-2.1-1.3c0,0-2.8,0-2.1,1.3c0.7,1.3,7.1,6,7.1,6s5.7,4.3,7.1,9.9s6.4,18.1-11.4,32.4
			c-2.8,1.7-2.8,3.5-2.8,3.5s0.7,2.6,5,0.4c4.3-2.2,16.3-16,17-25C262,1106.4,257.7,1092.6,244.2,1084.8z"/>
	</g>
	<g id="chair_25_">
		<path class="st0" d="M48.9,18.8c0,0-4.9-0.9-7,1.7S32.1,33,40.5,52.9C44.7,58.5,51,55,51,55L48.9,18.8z"/>
		<polygon class="st0" points="37,17.5 41.9,20.5 40.6,22.3 34.9,20.5 		"/>
		<polygon class="st0" points="37.6,28.9 30.7,27.4 30,29.6 37.2,30.7 		"/>
		<polygon class="st0" points="37,36.9 28.6,36 29.3,38.6 37,38.6 		"/>
		<polygon class="st0" points="37.7,44.6 30,45.1 30.7,47.7 39.1,46 		"/>
		<polygon class="st0" points="39.7,50.9 34.9,53.3 37,55.9 41.2,52 		"/>
		<path class="st0" d="M40.5,11.4l2.1-1.3c0,0,2.8,0,2.1,1.3s-7,6-7,6s-5.6,4.3-7,9.9s-6.3,18.1,11.2,32.4c2.8,1.7,2.8,3.5,2.8,3.5
			s-0.7,2.6-4.9,0.4c-4.2-2.2-16.1-16-16.8-25C23,33,27.2,19.2,40.5,11.4z"/>
	</g>
	<g id="chair_24_">
		<path class="st4" d="M48.9,75.2c0,0-4.9-0.9-7,1.7s-9.8,12.5-1.4,32.4c4.2,5.6,10.5,2.2,10.5,2.2L48.9,75.2z"/>
		<polygon class="st4" points="37,73.9 41.9,76.9 40.6,78.7 34.9,76.9 		"/>
		<polygon class="st4" points="37.6,85.3 30.7,83.8 30,85.9 37.2,87.1 		"/>
		<polygon class="st4" points="37,93.3 28.6,92.4 29.3,95 37,95 		"/>
		<polygon class="st4" points="37.7,101 30,101.5 30.7,104.1 39.1,102.3 		"/>
		<polygon class="st4" points="39.7,107.3 34.9,109.7 37,112.3 41.2,108.4 		"/>
		<path class="st4" d="M40.5,67.8l2.1-1.3c0,0,2.8,0,2.1,1.3s-7,6-7,6s-5.6,4.3-7,9.9c-1.4,5.6-6.3,18.1,11.2,32.4
			c2.8,1.7,2.8,3.5,2.8,3.5s-0.7,2.6-4.9,0.4s-16.1-16-16.8-25C23,89.4,27.2,75.6,40.5,67.8z"/>
	</g>
	<g id="chair_23_">
		<path class="st0" d="M48.9,131.5c0,0-4.9-0.9-7,1.7s-9.8,12.5-1.4,32.4c4.2,5.6,10.5,2.2,10.5,2.2L48.9,131.5z"/>
		<polygon class="st0" points="37,130.2 41.9,133.3 40.6,135 34.9,133.3 		"/>
		<polygon class="st0" points="37.6,141.6 30.7,140.2 30,142.3 37.2,143.5 		"/>
		<polygon class="st0" points="37,149.7 28.6,148.8 29.3,151.4 37,151.4 		"/>
		<polygon class="st0" points="37.7,157.4 30,157.8 30.7,160.4 39.1,158.7 		"/>
		<polygon class="st0" points="39.7,163.6 34.9,166 37,168.6 41.2,164.8 		"/>
		<path class="st0" d="M40.5,124.2l2.1-1.3c0,0,2.8,0,2.1,1.3s-7,6-7,6s-5.6,4.3-7,9.9s-6.3,18.1,11.2,32.4c2.8,1.7,2.8,3.5,2.8,3.5
			s-0.7,2.6-4.9,0.4c-4.2-2.2-16.1-16-16.8-25C23,145.8,27.2,132,40.5,124.2z"/>
	</g>
	<g id="chair_22_">
		<path class="st0" d="M48.9,187.9c0,0-4.9-0.9-7,1.7s-9.8,12.5-1.4,32.4c4.2,5.6,10.5,2.2,10.5,2.2L48.9,187.9z"/>
		<polygon class="st0" points="37,186.6 41.9,189.6 40.6,191.4 34.9,189.6 		"/>
		<polygon class="st0" points="37.6,198 30.7,196.5 30,198.7 37.2,199.9 		"/>
		<polygon class="st0" points="37,206 28.6,205.2 29.3,207.8 37,207.8 		"/>
		<polygon class="st0" points="37.7,213.8 30,214.2 30.7,216.8 39.1,215.1 		"/>
		<polygon class="st0" points="39.7,220 34.9,222.4 37,225 41.2,221.1 		"/>
		<path class="st0" d="M40.5,180.6l2.1-1.3c0,0,2.8,0,2.1,1.3s-7,6-7,6s-5.6,4.3-7,9.9c-1.4,5.6-6.3,18.1,11.2,32.4
			c2.8,1.7,2.8,3.5,2.8,3.5s-0.7,2.6-4.9,0.4c-4.2-2.2-16.1-16-16.8-25C23,202.1,27.2,188.3,40.5,180.6z"/>
	</g>
	<g id="chair_21_">
		<path class="st0" d="M48.9,244.3c0,0-4.9-0.9-7,1.7s-9.8,12.5-1.4,32.4c4.2,5.6,10.5,2.2,10.5,2.2L48.9,244.3z"/>
		<polygon class="st0" points="37,243 41.9,246 40.6,247.8 34.9,246 		"/>
		<polygon class="st0" points="37.6,254.4 30.7,252.9 30,255.1 37.2,256.2 		"/>
		<polygon class="st0" points="37,262.4 28.6,261.5 29.3,264.1 37,264.1 		"/>
		<polygon class="st0" points="37.7,270.1 30,270.6 30.7,273.2 39.1,271.5 		"/>
		<polygon class="st0" points="39.7,276.4 34.9,278.8 37,281.4 41.2,277.5 		"/>
		<path class="st0" d="M40.5,237l2.1-1.3c0,0,2.8,0,2.1,1.3s-7,6-7,6s-5.6,4.3-7,9.9s-6.3,18.1,11.2,32.4c2.8,1.7,2.8,3.5,2.8,3.5
			s-0.7,2.6-4.9,0.4c-4.2-2.2-16.1-16-16.8-25C23,258.5,27.2,244.7,40.5,237z"/>
	</g>
	<g id="chair_20_">
		<path class="st0" d="M48.9,300.7c0,0-4.9-0.9-7,1.7s-9.8,12.5-1.4,32.4c4.2,5.6,10.5,2.2,10.5,2.2L48.9,300.7z"/>
		<polygon class="st0" points="37,299.4 41.9,302.4 40.6,304.2 34.9,302.4 		"/>
		<polygon class="st0" points="37.6,310.8 30.7,309.3 30,311.5 37.2,312.6 		"/>
		<polygon class="st0" points="37,318.8 28.6,317.9 29.3,320.5 37,320.5 		"/>
		<polygon class="st0" points="37.7,326.5 30,327 30.7,329.6 39.1,327.8 		"/>
		<polygon class="st0" points="39.7,332.8 34.9,335.2 37,337.8 41.2,333.9 		"/>
		<path class="st0" d="M40.5,293.3l2.1-1.3c0,0,2.8,0,2.1,1.3s-7,6-7,6s-5.6,4.3-7,9.9c-1.4,5.6-6.3,18.1,11.2,32.4
			c2.8,1.7,2.8,3.5,2.8,3.5s-0.7,2.6-4.9,0.4s-16.1-16-16.8-25C23,314.9,27.2,301.1,40.5,293.3z"/>
	</g>
	<g id="chair_19_">
		<path class="st0" d="M48.9,357c0,0-4.9-0.9-7,1.7s-9.8,12.5-1.4,32.4c4.2,5.6,10.5,2.2,10.5,2.2L48.9,357z"/>
		<polygon class="st0" points="37,355.8 41.9,358.8 40.6,360.6 34.9,358.8 		"/>
		<polygon class="st0" points="37.6,367.2 30.7,365.7 30,367.8 37.2,369 		"/>
		<polygon class="st0" points="37,375.2 28.6,374.3 29.3,376.9 37,376.9 		"/>
		<polygon class="st0" points="37.7,382.9 30,383.4 30.7,386 39.1,384.2 		"/>
		<polygon class="st0" points="39.7,389.2 34.9,391.6 37,394.1 41.2,390.3 		"/>
		<path class="st0" d="M40.5,349.7l2.1-1.3c0,0,2.8,0,2.1,1.3s-7,6-7,6s-5.6,4.3-7,9.9c-1.4,5.6-6.3,18.1,11.2,32.4
			c2.8,1.7,2.8,3.5,2.8,3.5s-0.7,2.6-4.9,0.4c-4.2-2.2-16.1-16-16.8-25C23,371.3,27.2,357.5,40.5,349.7z"/>
	</g>
	<g id="chair_18_">
		<path class="st0" d="M48.9,413.4c0,0-4.9-0.9-7,1.7s-9.8,12.5-1.4,32.4c4.2,5.6,10.5,2.2,10.5,2.2L48.9,413.4z"/>
		<polygon class="st0" points="37,412.1 41.9,415.2 40.6,416.9 34.9,415.2 		"/>
		<polygon class="st0" points="37.6,423.5 30.7,422.1 30,424.2 37.2,425.4 		"/>
		<polygon class="st0" points="37,431.5 28.6,430.7 29.3,433.3 37,433.3 		"/>
		<polygon class="st0" points="37.7,439.3 30,439.7 30.7,442.3 39.1,440.6 		"/>
		<polygon class="st0" points="39.7,445.5 34.9,447.9 37,450.5 41.2,446.6 		"/>
		<path class="st0" d="M40.5,406.1l2.1-1.3c0,0,2.8,0,2.1,1.3s-7,6-7,6s-5.6,4.3-7,9.9c-1.4,5.6-6.3,18.1,11.2,32.4
			c2.8,1.7,2.8,3.5,2.8,3.5s-0.7,2.6-4.9,0.4s-16.1-16-16.8-25C23,427.7,27.2,413.9,40.5,406.1z"/>
	</g>
	<g id="chair_17_">
		<path class="st0" d="M48.9,469.8c0,0-4.9-0.9-7,1.7s-9.8,12.5-1.4,32.4C44.7,509.5,51,506,51,506L48.9,469.8z"/>
		<polygon class="st0" points="37,468.5 41.9,471.5 40.6,473.3 34.9,471.5 		"/>
		<polygon class="st0" points="37.6,479.9 30.7,478.4 30,480.6 37.2,481.8 		"/>
		<polygon class="st0" points="37,487.9 28.6,487.1 29.3,489.6 37,489.6 		"/>
		<polygon class="st0" points="37.7,495.6 30,496.1 30.7,498.7 39.1,497 		"/>
		<polygon class="st0" points="39.7,501.9 34.9,504.3 37,506.9 41.2,503 		"/>
		<path class="st0" d="M40.5,462.5l2.1-1.3c0,0,2.8,0,2.1,1.3s-7,6-7,6s-5.6,4.3-7,9.9s-6.3,18.1,11.2,32.4c2.8,1.7,2.8,3.5,2.8,3.5
			s-0.7,2.6-4.9,0.4s-16.1-16-16.8-25C23,484,27.2,470.2,40.5,462.5z"/>
	</g>
	<g id="chair_16_">
		<path class="st0" d="M48.9,526.2c0,0-4.9-0.9-7,1.7s-9.8,12.5-1.4,32.4c4.2,5.6,10.5,2.2,10.5,2.2L48.9,526.2z"/>
		<polygon class="st0" points="37,524.9 41.9,527.9 40.6,529.7 34.9,527.9 		"/>
		<polygon class="st0" points="37.6,536.3 30.7,534.8 30,537 37.2,538.1 		"/>
		<polygon class="st0" points="37,544.3 28.6,543.4 29.3,546 37,546 		"/>
		<polygon class="st0" points="37.7,552 30,552.5 30.7,555.1 39.1,553.4 		"/>
		<polygon class="st0" points="39.7,558.3 34.9,560.7 37,563.3 41.2,559.4 		"/>
		<path class="st0" d="M40.5,518.8l2.1-1.3c0,0,2.8,0,2.1,1.3c-0.7,1.3-7,6-7,6s-5.6,4.3-7,9.9s-6.3,18.1,11.2,32.4
			c2.8,1.7,2.8,3.5,2.8,3.5s-0.7,2.6-4.9,0.4c-4.2-2.2-16.1-16-16.8-25C23,540.4,27.2,526.6,40.5,518.8z"/>
	</g>
	<g id="chair_15_">
		<path class="st0" d="M48.9,584.8c0,0-4.9-0.9-7,1.7s-9.8,12.5-1.4,32.4C44.7,624.5,51,621,51,621L48.9,584.8z"/>
		<polygon class="st0" points="37,583.5 41.9,586.5 40.6,588.3 34.9,586.5 		"/>
		<polygon class="st0" points="37.6,594.9 30.7,593.4 30,595.6 37.2,596.7 		"/>
		<polygon class="st0" points="37,602.9 28.6,602 29.3,604.6 37,604.6 		"/>
		<polygon class="st0" points="37.7,610.6 30,611.1 30.7,613.7 39.1,612 		"/>
		<polygon class="st0" points="39.7,616.9 34.9,619.3 37,621.9 41.2,618 		"/>
		<path class="st0" d="M40.5,577.4l2.1-1.3c0,0,2.8,0,2.1,1.3c-0.7,1.3-7,6-7,6s-5.6,4.3-7,9.9s-6.3,18.1,11.2,32.4
			c2.8,1.7,2.8,3.5,2.8,3.5s-0.7,2.6-4.9,0.4s-16.1-16-16.8-25C23,599,27.2,585.2,40.5,577.4z"/>
	</g>
	<g id="chair_14_">
		<path class="st4" d="M48.9,641.2c0,0-4.9-0.9-7,1.7s-9.8,12.5-1.4,32.4c4.2,5.6,10.5,2.2,10.5,2.2L48.9,641.2z"/>
		<polygon class="st4" points="37,639.9 41.9,642.9 40.6,644.7 34.9,642.9 		"/>
		<polygon class="st4" points="37.6,651.3 30.7,649.8 30,651.9 37.2,653.1 		"/>
		<polygon class="st4" points="37,659.3 28.6,658.4 29.3,661 37,661 		"/>
		<polygon class="st4" points="37.7,667 30,667.5 30.7,670.1 39.1,668.3 		"/>
		<polygon class="st4" points="39.7,673.3 34.9,675.7 37,678.3 41.2,674.4 		"/>
		<path class="st4" d="M40.5,633.8l2.1-1.3c0,0,2.8,0,2.1,1.3c-0.7,1.3-7,6-7,6s-5.6,4.3-7,9.9c-1.4,5.6-6.3,18.1,11.2,32.4
			c2.8,1.7,2.8,3.5,2.8,3.5s-0.7,2.6-4.9,0.4c-4.2-2.2-16.1-16-16.8-25C23,655.4,27.2,641.6,40.5,633.8z"/>
	</g>
	<g id="chair_13_">
		<path class="st0" d="M48.9,697.5c0,0-4.9-0.9-7,1.7c-2.1,2.6-9.8,12.5-1.4,32.4c4.2,5.6,10.5,2.2,10.5,2.2L48.9,697.5z"/>
		<polygon class="st0" points="37,696.2 41.9,699.3 40.6,701 34.9,699.3 		"/>
		<polygon class="st0" points="37.6,707.6 30.7,706.2 30,708.3 37.2,709.5 		"/>
		<polygon class="st0" points="37,715.7 28.6,714.8 29.3,717.4 37,717.4 		"/>
		<polygon class="st0" points="37.7,723.4 30,723.8 30.7,726.4 39.1,724.7 		"/>
		<polygon class="st0" points="39.7,729.6 34.9,732 37,734.6 41.2,730.8 		"/>
		<path class="st0" d="M40.5,690.2l2.1-1.3c0,0,2.8,0,2.1,1.3c-0.7,1.3-7,6-7,6s-5.6,4.3-7,9.9s-6.3,18.1,11.2,32.4
			c2.8,1.7,2.8,3.5,2.8,3.5s-0.7,2.6-4.9,0.4c-4.2-2.2-16.1-16-16.8-25C23,711.8,27.2,698,40.5,690.2z"/>
	</g>
	<g id="chair_12_">
		<path class="st0" d="M48.9,753.9c0,0-4.9-0.9-7,1.7s-9.8,12.5-1.4,32.4c4.2,5.6,10.5,2.2,10.5,2.2L48.9,753.9z"/>
		<polygon class="st0" points="37,752.6 41.9,755.6 40.6,757.4 34.9,755.6 		"/>
		<polygon class="st0" points="37.6,764 30.7,762.5 30,764.7 37.2,765.9 		"/>
		<polygon class="st0" points="37,772 28.6,771.2 29.3,773.8 37,773.8 		"/>
		<polygon class="st0" points="37.7,779.8 30,780.2 30.7,782.8 39.1,781.1 		"/>
		<polygon class="st0" points="39.7,786 34.9,788.4 37,791 41.2,787.1 		"/>
		<path class="st0" d="M40.5,746.6l2.1-1.3c0,0,2.8,0,2.1,1.3c-0.7,1.3-7,6-7,6s-5.6,4.3-7,9.9s-6.3,18.1,11.2,32.4
			c2.8,1.7,2.8,3.5,2.8,3.5s-0.7,2.6-4.9,0.4s-16.1-16-16.8-25C23,768.1,27.2,754.3,40.5,746.6z"/>
	</g>
	<g id="chair_11_">
		<path class="st0" d="M48.9,810.3c0,0-4.9-0.9-7,1.7s-9.8,12.5-1.4,32.4c4.2,5.6,10.5,2.2,10.5,2.2L48.9,810.3z"/>
		<polygon class="st0" points="37,809 41.9,812 40.6,813.8 34.9,812 		"/>
		<polygon class="st0" points="37.6,820.4 30.7,818.9 30,821.1 37.2,822.2 		"/>
		<polygon class="st0" points="37,828.4 28.6,827.5 29.3,830.1 37,830.1 		"/>
		<polygon class="st0" points="37.7,836.1 30,836.6 30.7,839.2 39.1,837.5 		"/>
		<polygon class="st0" points="39.7,842.4 34.9,844.8 37,847.4 41.2,843.5 		"/>
		<path class="st0" d="M40.5,803l2.1-1.3c0,0,2.8,0,2.1,1.3c-0.7,1.3-7,6-7,6s-5.6,4.3-7,9.9c-1.4,5.6-6.3,18.1,11.2,32.4
			c2.8,1.7,2.8,3.5,2.8,3.5s-0.7,2.6-4.9,0.4s-16.1-16-16.8-25C23,824.5,27.2,810.7,40.5,803z"/>
	</g>
	<g id="chair_10_">
		<path class="st0" d="M48.9,866.7c0,0-4.9-0.9-7,1.7s-9.8,12.5-1.4,32.4c4.2,5.6,10.5,2.2,10.5,2.2L48.9,866.7z"/>
		<polygon class="st0" points="37,865.4 41.9,868.4 40.6,870.2 34.9,868.4 		"/>
		<polygon class="st0" points="37.6,876.8 30.7,875.3 30,877.5 37.2,878.6 		"/>
		<polygon class="st0" points="37,884.8 28.6,883.9 29.3,886.5 37,886.5 		"/>
		<polygon class="st0" points="37.7,892.5 30,893 30.7,895.6 39.1,893.8 		"/>
		<polygon class="st0" points="39.7,898.8 34.9,901.2 37,903.8 41.2,899.9 		"/>
		<path class="st0" d="M40.5,859.3l2.1-1.3c0,0,2.8,0,2.1,1.3c-0.7,1.3-7,6-7,6s-5.6,4.3-7,9.9c-1.4,5.6-6.3,18.1,11.2,32.4
			c2.8,1.7,2.8,3.5,2.8,3.5s-0.7,2.6-4.9,0.4c-4.2-2.2-16.1-16-16.8-25C23,880.9,27.2,867.1,40.5,859.3z"/>
	</g>
	<g id="chair_9_">
		<path class="st0" d="M48.9,923c0,0-4.9-0.9-7,1.7s-9.8,12.5-1.4,32.4c4.2,5.6,10.5,2.2,10.5,2.2L48.9,923z"/>
		<polygon class="st0" points="37,921.8 41.9,924.8 40.6,926.6 34.9,924.8 		"/>
		<polygon class="st0" points="37.6,933.2 30.7,931.7 30,933.8 37.2,935 		"/>
		<polygon class="st0" points="37,941.2 28.6,940.3 29.3,942.9 37,942.9 		"/>
		<polygon class="st0" points="37.7,948.9 30,949.4 30.7,952 39.1,950.2 		"/>
		<polygon class="st0" points="39.7,955.2 34.9,957.6 37,960.1 41.2,956.3 		"/>
		<path class="st0" d="M40.5,915.7l2.1-1.3c0,0,2.8,0,2.1,1.3c-0.7,1.3-7,6-7,6s-5.6,4.3-7,9.9s-6.3,18.1,11.2,32.4
			c2.8,1.7,2.8,3.5,2.8,3.5s-0.7,2.6-4.9,0.4s-16.1-16-16.8-25C23,937.3,27.2,923.5,40.5,915.7z"/>
	</g>
	<g id="chair_8_">
		<path class="st0" d="M48.9,979.4c0,0-4.9-0.9-7,1.7s-9.8,12.5-1.4,32.4c4.2,5.6,10.5,2.2,10.5,2.2L48.9,979.4z"/>
		<polygon class="st0" points="37,978.1 41.9,981.2 40.6,982.9 34.9,981.2 		"/>
		<polygon class="st0" points="37.6,989.5 30.7,988.1 30,990.2 37.2,991.4 		"/>
		<polygon class="st0" points="37,997.5 28.6,996.7 29.3,999.3 37,999.3 		"/>
		<polygon class="st0" points="37.7,1005.3 30,1005.7 30.7,1008.3 39.1,1006.6 		"/>
		<polygon class="st0" points="39.7,1011.5 34.9,1013.9 37,1016.5 41.2,1012.6 		"/>
		<path class="st0" d="M40.5,972.1l2.1-1.3c0,0,2.8,0,2.1,1.3c-0.7,1.3-7,6-7,6s-5.6,4.3-7,9.9s-6.3,18.1,11.2,32.4
			c2.8,1.7,2.8,3.5,2.8,3.5s-0.7,2.6-4.9,0.4c-4.2-2.2-16.1-16-16.8-25C23,993.7,27.2,979.9,40.5,972.1z"/>
	</g>
	<g id="chair_7_">
		<path class="st0" d="M48.9,1035.8c0,0-4.9-0.9-7,1.7c-2.1,2.6-9.8,12.5-1.4,32.4c4.2,5.6,10.5,2.2,10.5,2.2L48.9,1035.8z"/>
		<polygon class="st0" points="37,1034.5 41.9,1037.5 40.6,1039.3 34.9,1037.5 		"/>
		<polygon class="st0" points="37.6,1045.9 30.7,1044.4 30,1046.6 37.2,1047.8 		"/>
		<polygon class="st0" points="37,1053.9 28.6,1053.1 29.3,1055.6 37,1055.6 		"/>
		<polygon class="st0" points="37.7,1061.6 30,1062.1 30.7,1064.7 39.1,1063 		"/>
		<polygon class="st0" points="39.7,1067.9 34.9,1070.3 37,1072.9 41.2,1069 		"/>
		<path class="st0" d="M40.5,1028.5l2.1-1.3c0,0,2.8,0,2.1,1.3s-7,6-7,6s-5.6,4.3-7,9.9s-6.3,18.1,11.2,32.4
			c2.8,1.7,2.8,3.5,2.8,3.5s-0.7,2.6-4.9,0.4c-4.2-2.2-16.1-16-16.8-25C23,1050,27.2,1036.2,40.5,1028.5z"/>
	</g>
	<g id="chair_6_">
		<path class="st0" d="M48.9,1092.2c0,0-4.9-0.9-7,1.7c-2.1,2.6-9.8,12.5-1.4,32.4c4.2,5.6,10.5,2.2,10.5,2.2L48.9,1092.2z"/>
		<polygon class="st0" points="37,1090.9 41.9,1093.9 40.6,1095.7 34.9,1093.9 		"/>
		<polygon class="st0" points="37.6,1102.3 30.7,1100.8 30,1103 37.2,1104.1 		"/>
		<polygon class="st0" points="37,1110.3 28.6,1109.4 29.3,1112 37,1112 		"/>
		<polygon class="st0" points="37.7,1118 30,1118.5 30.7,1121.1 39.1,1119.4 		"/>
		<polygon class="st0" points="39.7,1124.3 34.9,1126.7 37,1129.3 41.2,1125.4 		"/>
		<path class="st0" d="M40.5,1084.8l2.1-1.3c0,0,2.8,0,2.1,1.3s-7,6-7,6s-5.6,4.3-7,9.9s-6.3,18.1,11.2,32.4
			c2.8,1.7,2.8,3.5,2.8,3.5s-0.7,2.6-4.9,0.4c-4.2-2.2-16.1-16-16.8-25C23,1106.4,27.2,1092.6,40.5,1084.8z"/>
	</g>
</g>
<g id="tarelki_vse" class="st2">
</g>
<g id="Layer_4">
</g>
<g id="chair">
</g>
<g id="table">
</g>
</svg>
