<?xml version="1.0" encoding="utf-8"?>
<!-- Generator: Adobe Illustrator 24.2.3, SVG Export Plug-In . SVG Version: 6.00 Build 0)  -->
<svg version="1.1" id="Capa_1" xmlns="http://www.w3.org/2000/svg" xmlns:xlink="http://www.w3.org/1999/xlink" x="0px" y="0px"
	 viewBox="0 0 800 800" style="enable-background:new 0 0 800 800;" xml:space="preserve">
<style type="text/css">
	.st0{fill:#FAEEE2;}
	.st1{fill:#FFEBE1;}
	.st2{fill:#FFDCAA;}
	.st3{fill:#F5E1D2;}
</style>
<g>
	<path class="st0" d="M407,105.3c-162.8,0-294.7,132-294.7,294.7s132,294.7,294.7,294.7s294.7-132,294.7-294.7
		S569.8,105.3,407,105.3z M407,596.5c-108.3,0-196.5-88.1-196.5-196.5S298.7,203.5,407,203.5S603.5,291.7,603.5,400
		S515.4,596.5,407,596.5z"/>
	<path class="st1" d="M407,231.6c-92.9,0-168.4,75.6-168.4,168.4S314.1,568.4,407,568.4S575.4,492.9,575.4,400
		S499.9,231.6,407,231.6z"/>
	<path class="st2" d="M407,203.5c-108.3,0-196.5,88.1-196.5,196.5S298.7,596.5,407,596.5S603.5,508.3,603.5,400
		S515.4,203.5,407,203.5z M407,568.4c-92.9,0-168.4-75.6-168.4-168.4S314.1,231.6,407,231.6S575.4,307.1,575.4,400
		S499.9,568.4,407,568.4z"/>
	<path class="st3" d="M75.8,147.4c-4.7,0-8.4,3.9-8.4,8.7v121.6c0,4.8-3.8,8.7-8.4,8.7s-8.4-3.9-8.4-8.7V156.1
		c0-4.8-3.8-8.7-8.4-8.7s-8.4,3.9-8.4,8.7v121.6c0,4.8-3.8,8.7-8.4,8.7s-8.4-3.9-8.4-8.7V156.1c0-4.8-3.8-8.7-8.4-8.7
		S0,151.3,0,156.1v139c0,16.3,10.9,29.9,25.6,33.6L15,624.6c-0.5,15.3,11.7,28.1,27.1,28.1s27.6-12.7,27.1-28.1L58.6,328.7
		c14.7-3.7,25.6-17.3,25.6-33.6v-139C84.2,151.3,80.4,147.4,75.8,147.4z"/>
	<path class="st3" d="M784.9,147.4c-7.4,0-13.8,5.4-15,12.8l-36.4,230.4c-2.1,13.6,5.8,26.7,18.9,31l19.5,6.5l-24.4,195
		c-2,15.7,10.3,29.6,26.1,29.6l0,0c14.5,0,26.3-11.8,26.3-26.3V162.5C800,154.1,793.2,147.4,784.9,147.4z"/>
</g>
</svg>
